<svg xmlns="http://www.w3.org/2000/svg" xmlns:xlink="http://www.w3.org/1999/xlink" contentStyleType="text/css" data-diagram-type="CLASS" height="587px" preserveAspectRatio="none" style="width:712px;height:587px;background:#FFFFFF;" version="1.1" viewBox="0 0 712 587" width="712px" zoomAndPan="magnify"><title>Template Logic Independence Architecture</title><defs/><g><g class="title" data-source-line="1"><text fill="#000000" font-family="sans-serif" font-size="14" font-weight="bold" lengthAdjust="spacing" textLength="308.4922" x="194.7539" y="23.5352">Template Logic Independence Architecture</text></g><!--cluster Interfaces--><g class="cluster" data-entity="Interfaces" data-source-line="3" data-uid="ent0002" id="cluster_Interfaces"><path d="M31.5,43.4883 L104.1816,43.4883 A3.75,3.75 0 0 1 106.6816,45.9883 L113.6816,65.9766 L702.5,65.9766 A2.5,2.5 0 0 1 705,68.4766 L705,280.9683 A2.5,2.5 0 0 1 702.5,283.4683 L31.5,283.4683 A2.5,2.5 0 0 1 29,280.9683 L29,45.9883 A2.5,2.5 0 0 1 31.5,43.4883" fill="none" style="stroke:#000000;stroke-width:1.5;"/><line style="stroke:#000000;stroke-width:1.5;" x1="29" x2="113.6816" y1="65.9766" y2="65.9766"/><text fill="#000000" font-family="sans-serif" font-size="14" font-weight="bold" lengthAdjust="spacing" textLength="71.6816" x="33" y="59.0234">Interfaces</text></g><!--cluster Implementations--><g class="cluster" data-entity="Implementations" data-source-line="17" data-uid="ent0006" id="cluster_Implementations"><path d="M8.5,307.4683 L130.9063,307.4683 A3.75,3.75 0 0 1 133.4063,309.9683 L140.4063,329.9566 L702.5,329.9566 A2.5,2.5 0 0 1 705,332.4566 L705,577.9183 A2.5,2.5 0 0 1 702.5,580.4183 L8.5,580.4183 A2.5,2.5 0 0 1 6,577.9183 L6,309.9683 A2.5,2.5 0 0 1 8.5,307.4683" fill="none" style="stroke:#000000;stroke-width:1.5;"/><line style="stroke:#000000;stroke-width:1.5;" x1="6" x2="140.4063" y1="329.9566" y2="329.9566"/><text fill="#000000" font-family="sans-serif" font-size="14" font-weight="bold" lengthAdjust="spacing" textLength="121.4063" x="10" y="323.0034">Implementations</text></g><!--class View--><g class="entity" data-entity="View" data-source-line="4" data-uid="ent0003" id="entity_View"><rect fill="#F1F1F1" height="64.4883" rx="2.5" ry="2.5" style="stroke:#181818;stroke-width:0.5;" width="289.7646" x="45.12" y="78.4883"/><ellipse cx="169.8588" cy="94.4883" fill="#B4A7E5" rx="11" ry="11" style="stroke:#181818;stroke-width:1;"/><path d="M166.2865,90.7534 L166.2865,88.5952 L173.6659,88.5952 L173.6659,90.7534 L171.2006,90.7534 L171.2006,98.8301 L173.6659,98.8301 L173.6659,100.9883 L166.2865,100.9883 L166.2865,98.8301 L168.7518,98.8301 L168.7518,90.7534 Z " fill="#000000"/><text fill="#000000" font-family="sans-serif" font-size="14" font-style="italic" lengthAdjust="spacing" textLength="31.7871" x="190.3588" y="99.7793">View</text><line style="stroke:#181818;stroke-width:0.5;" x1="46.12" x2="333.8846" y1="110.4883" y2="110.4883"/><line style="stroke:#181818;stroke-width:0.5;" x1="46.12" x2="333.8846" y1="118.4883" y2="118.4883"/><ellipse cx="56.12" cy="132.2324" fill="#84BE84" rx="3" ry="3" style="stroke:#038048;stroke-width:1;"/><text fill="#000000" font-family="sans-serif" font-size="14" lengthAdjust="spacing" textLength="263.7646" x="65.12" y="136.0234">render(context): Promise&lt;ViewResult&gt;</text></g><!--class MDView--><g class="entity" data-entity="MDView" data-source-line="8" data-uid="ent0004" id="entity_MDView"><rect fill="#F1F1F1" height="64.4883" rx="2.5" ry="2.5" style="stroke:#181818;stroke-width:0.5;" width="312.3096" x="44.85" y="202.9783"/><ellipse cx="169.5888" cy="218.9783" fill="#B4A7E5" rx="11" ry="11" style="stroke:#181818;stroke-width:1;"/><path d="M166.0165,215.2434 L166.0165,213.0852 L173.3959,213.0852 L173.3959,215.2434 L170.9306,215.2434 L170.9306,223.3201 L173.3959,223.3201 L173.3959,225.4783 L166.0165,225.4783 L166.0165,223.3201 L168.4818,223.3201 L168.4818,215.2434 Z " fill="#000000"/><text fill="#000000" font-family="sans-serif" font-size="14" font-style="italic" lengthAdjust="spacing" textLength="54.332" x="190.0888" y="224.2693">MDView</text><line style="stroke:#181818;stroke-width:0.5;" x1="45.85" x2="356.1596" y1="234.9783" y2="234.9783"/><line style="stroke:#181818;stroke-width:0.5;" x1="45.85" x2="356.1596" y1="242.9783" y2="242.9783"/><ellipse cx="55.85" cy="256.7224" fill="#84BE84" rx="3" ry="3" style="stroke:#038048;stroke-width:1;"/><text fill="#000000" font-family="sans-serif" font-size="14" lengthAdjust="spacing" textLength="286.3096" x="64.85" y="260.5134">renderMD(context): Promise&lt;ViewResult&gt;</text></g><!--class TemplateProcessor--><g class="entity" data-entity="TemplateProcessor" data-source-line="12" data-uid="ent0005" id="entity_TemplateProcessor"><rect fill="#F1F1F1" height="64.4883" rx="2.5" ry="2.5" style="stroke:#181818;stroke-width:0.5;" width="319.1729" x="369.41" y="78.4883"/><ellipse cx="460.2528" cy="94.4883" fill="#B4A7E5" rx="11" ry="11" style="stroke:#181818;stroke-width:1;"/><path d="M456.6805,90.7534 L456.6805,88.5952 L464.0599,88.5952 L464.0599,90.7534 L461.5946,90.7534 L461.5946,98.8301 L464.0599,98.8301 L464.0599,100.9883 L456.6805,100.9883 L456.6805,98.8301 L459.1458,98.8301 L459.1458,90.7534 Z " fill="#000000"/><text fill="#000000" font-family="sans-serif" font-size="14" font-style="italic" lengthAdjust="spacing" textLength="128.9873" x="480.7528" y="99.7793">TemplateProcessor</text><line style="stroke:#181818;stroke-width:0.5;" x1="370.41" x2="687.5829" y1="110.4883" y2="110.4883"/><line style="stroke:#181818;stroke-width:0.5;" x1="370.41" x2="687.5829" y1="118.4883" y2="118.4883"/><ellipse cx="380.41" cy="132.2324" fill="#84BE84" rx="3" ry="3" style="stroke:#038048;stroke-width:1;"/><text fill="#000000" font-family="sans-serif" font-size="14" lengthAdjust="spacing" textLength="293.1729" x="389.41" y="136.0234">processTemplate(template, context): string</text></g><!--class DefaultTemplateProcessor--><g class="entity" data-entity="DefaultTemplateProcessor" data-source-line="18" data-uid="ent0007" id="entity_DefaultTemplateProcessor"><rect fill="#F1F1F1" height="80.9766" rx="2.5" ry="2.5" style="stroke:#181818;stroke-width:0.5;" width="319.1729" x="369.41" y="483.4383"/><ellipse cx="435.6844" cy="499.4383" fill="#ADD1B2" rx="11" ry="11" style="stroke:#181818;stroke-width:1;"/><path d="M438.1576,505.5813 Q437.5765,505.8802 436.9373,506.0296 Q436.2982,506.179 435.5926,506.179 Q433.0858,506.179 431.766,504.5271 Q430.4461,502.8753 430.4461,499.7542 Q430.4461,496.6248 431.766,494.9729 Q433.0858,493.3211 435.5926,493.3211 Q436.2982,493.3211 436.9456,493.4705 Q437.5931,493.6199 438.1576,493.9187 L438.1576,496.6414 Q437.5267,496.0604 436.9332,495.7906 Q436.3397,495.5208 435.7088,495.5208 Q434.3641,495.5208 433.6793,496.5875 Q432.9945,497.6541 432.9945,499.7542 Q432.9945,501.846 433.6793,502.9126 Q434.3641,503.9793 435.7088,503.9793 Q436.3397,503.9793 436.9332,503.7095 Q437.5267,503.4397 438.1576,502.8587 Z " fill="#000000"/><text fill="#000000" font-family="sans-serif" font-size="14" lengthAdjust="spacing" textLength="178.124" x="456.1844" y="504.7293">DefaultTemplateProcessor</text><line style="stroke:#181818;stroke-width:0.5;" x1="370.41" x2="687.5829" y1="515.4383" y2="515.4383"/><line style="stroke:#181818;stroke-width:0.5;" x1="370.41" x2="687.5829" y1="523.4383" y2="523.4383"/><ellipse cx="380.41" cy="537.1824" fill="#84BE84" rx="3" ry="3" style="stroke:#038048;stroke-width:1;"/><text fill="#000000" font-family="sans-serif" font-size="14" lengthAdjust="spacing" textLength="293.1729" x="389.41" y="540.9734">processTemplate(template, context): string</text><ellipse cx="380.41" cy="553.6707" fill="#84BE84" rx="3" ry="3" style="stroke:#038048;stroke-width:1;"/><text fill="#000000" font-family="sans-serif" font-size="14" lengthAdjust="spacing" textLength="256.915" x="389.41" y="557.4617">loadTemplate(path): Promise&lt;string&gt;</text></g><!--class DefaultMDView--><g class="entity" data-entity="DefaultMDView" data-source-line="23" data-uid="ent0008" id="entity_DefaultMDView"><rect fill="#F1F1F1" height="80.9766" rx="2.5" ry="2.5" style="stroke:#181818;stroke-width:0.5;" width="312.3096" x="44.85" y="342.4683"/><ellipse cx="145.0204" cy="358.4683" fill="#ADD1B2" rx="11" ry="11" style="stroke:#181818;stroke-width:1;"/><path d="M147.4936,364.6113 Q146.9125,364.9102 146.2733,365.0596 Q145.6342,365.209 144.9286,365.209 Q142.4218,365.209 141.102,363.5571 Q139.7821,361.9053 139.7821,358.7842 Q139.7821,355.6548 141.102,354.0029 Q142.4218,352.3511 144.9286,352.3511 Q145.6342,352.3511 146.2816,352.5005 Q146.9291,352.6499 147.4936,352.9487 L147.4936,355.6714 Q146.8627,355.0904 146.2692,354.8206 Q145.6757,354.5508 145.0448,354.5508 Q143.7001,354.5508 143.0153,355.6175 Q142.3305,356.6841 142.3305,358.7842 Q142.3305,360.876 143.0153,361.9426 Q143.7001,363.0093 145.0448,363.0093 Q145.6757,363.0093 146.2692,362.7395 Q146.8627,362.4697 147.4936,361.8887 Z " fill="#000000"/><text fill="#000000" font-family="sans-serif" font-size="14" lengthAdjust="spacing" textLength="103.4688" x="165.5204" y="363.7593">DefaultMDView</text><line style="stroke:#181818;stroke-width:0.5;" x1="45.85" x2="356.1596" y1="374.4683" y2="374.4683"/><rect fill="none" height="6" style="stroke:#C82930;stroke-width:1;" width="6" x="52.85" y="385.2124"/><text fill="#000000" font-family="sans-serif" font-size="14" lengthAdjust="spacing" textLength="263.2178" x="64.85" y="392.0034">templateProcessor: TemplateProcessor</text><line style="stroke:#181818;stroke-width:0.5;" x1="45.85" x2="356.1596" y1="398.9566" y2="398.9566"/><ellipse cx="55.85" cy="412.7007" fill="#84BE84" rx="3" ry="3" style="stroke:#038048;stroke-width:1;"/><text fill="#000000" font-family="sans-serif" font-size="14" lengthAdjust="spacing" textLength="286.3096" x="64.85" y="416.4917">renderMD(context): Promise&lt;ViewResult&gt;</text></g><!--class MDOverview--><g class="entity" data-entity="MDOverview" data-source-line="28" data-uid="ent0009" id="entity_MDOverview"><rect fill="#F1F1F1" height="80.9766" rx="2.5" ry="2.5" style="stroke:#181818;stroke-width:0.5;" width="312.3096" x="21.85" y="483.4383"/><ellipse cx="131.7172" cy="499.4383" fill="#ADD1B2" rx="11" ry="11" style="stroke:#181818;stroke-width:1;"/><path d="M134.1903,505.5813 Q133.6093,505.8802 132.9701,506.0296 Q132.331,506.179 131.6254,506.179 Q129.1186,506.179 127.7987,504.5271 Q126.4789,502.8753 126.4789,499.7542 Q126.4789,496.6248 127.7987,494.9729 Q129.1186,493.3211 131.6254,493.3211 Q132.331,493.3211 132.9784,493.4705 Q133.6259,493.6199 134.1903,493.9187 L134.1903,496.6414 Q133.5595,496.0604 132.966,495.7906 Q132.3725,495.5208 131.7416,495.5208 Q130.3969,495.5208 129.7121,496.5875 Q129.0272,497.6541 129.0272,499.7542 Q129.0272,501.846 129.7121,502.9126 Q130.3969,503.9793 131.7416,503.9793 Q132.3725,503.9793 132.966,503.7095 Q133.5595,503.4397 134.1903,502.8587 Z " fill="#000000"/><text fill="#000000" font-family="sans-serif" font-size="14" lengthAdjust="spacing" textLength="84.0752" x="152.2172" y="504.7293">MDOverview</text><line style="stroke:#181818;stroke-width:0.5;" x1="22.85" x2="333.1596" y1="515.4383" y2="515.4383"/><rect fill="none" height="6" style="stroke:#C82930;stroke-width:1;" width="6" x="29.85" y="526.1824"/><text fill="#000000" font-family="sans-serif" font-size="14" lengthAdjust="spacing" textLength="171.3223" x="41.85" y="532.9734">itemTemplatePath: string</text><line style="stroke:#181818;stroke-width:0.5;" x1="22.85" x2="333.1596" y1="539.9266" y2="539.9266"/><ellipse cx="32.85" cy="553.6707" fill="#84BE84" rx="3" ry="3" style="stroke:#038048;stroke-width:1;"/><text fill="#000000" font-family="sans-serif" font-size="14" lengthAdjust="spacing" textLength="286.3096" x="41.85" y="557.4617">renderMD(context): Promise&lt;ViewResult&gt;</text></g><!--link TemplateProcessor to DefaultTemplateProcessor--><g class="link" data-entity-1="TemplateProcessor" data-entity-2="DefaultTemplateProcessor" data-source-line="34" data-uid="lnk10" id="link_TemplateProcessor_DefaultTemplateProcessor"><path codeLine="34" d="M529,151.3183 C529,225.3183 529,393.7983 529,475.2283" fill="none" id="TemplateProcessor-DefaultTemplateProcessor" style="stroke:#181818;stroke-width:1;stroke-dasharray:7,7;"/><line style="stroke:#181818;stroke-width:1;" x1="525" x2="533" y1="147.3183" y2="147.3183"/><line style="stroke:#181818;stroke-width:1;" x1="525" x2="533" y1="150.3183" y2="150.3183"/><line style="stroke:#181818;stroke-width:1;" x1="529" x2="529" y1="151.3183" y2="143.3183"/><line style="stroke:#181818;stroke-width:1;" x1="533" x2="525" y1="479.2283" y2="479.2283"/><line style="stroke:#181818;stroke-width:1;" x1="533" x2="525" y1="476.2283" y2="476.2283"/><line style="stroke:#181818;stroke-width:1;" x1="529" x2="529" y1="475.2283" y2="483.2283"/></g><!--link View to MDView--><g class="link" data-entity-1="View" data-entity-2="MDView" data-source-line="35" data-uid="lnk11" id="link_View_MDView"><path codeLine="35" d="M193.5488,151.2459 C195.1988,169.5359 195.8248,176.5503 197.4648,194.8203" fill="none" id="View-MDView" style="stroke:#181818;stroke-width:1;stroke-dasharray:7,7;"/><line style="stroke:#181818;stroke-width:1;" x1="189.2056" x2="197.1732" y1="147.6215" y2="146.9027"/><line style="stroke:#181818;stroke-width:1;" x1="189.4751" x2="197.4428" y1="150.6094" y2="149.8906"/><line style="stroke:#181818;stroke-width:1;" x1="193.5488" x2="192.83" y1="151.2459" y2="143.2783"/><line style="stroke:#181818;stroke-width:1;" x1="201.8064" x2="193.8384" y1="198.4467" y2="199.1619"/><line style="stroke:#181818;stroke-width:1;" x1="201.5381" x2="193.5702" y1="195.4587" y2="196.1739"/><line style="stroke:#181818;stroke-width:1;" x1="197.4648" x2="198.18" y1="194.8203" y2="202.7883"/></g><!--link MDView to DefaultMDView--><g class="link" data-entity-1="MDView" data-entity-2="DefaultMDView" data-source-line="36" data-uid="lnk12" id="link_MDView_DefaultMDView"><path codeLine="36" d="M201,275.8383 C201,297.6083 201,310.6983 201,334.0483" fill="none" id="MDView-DefaultMDView" style="stroke:#181818;stroke-width:1;stroke-dasharray:7,7;"/><line style="stroke:#181818;stroke-width:1;" x1="197" x2="205" y1="271.8383" y2="271.8383"/><line style="stroke:#181818;stroke-width:1;" x1="197" x2="205" y1="274.8383" y2="274.8383"/><line style="stroke:#181818;stroke-width:1;" x1="201" x2="201" y1="275.8383" y2="267.8383"/><line style="stroke:#181818;stroke-width:1;" x1="205" x2="197" y1="338.0483" y2="338.0483"/><line style="stroke:#181818;stroke-width:1;" x1="205" x2="197" y1="335.0483" y2="335.0483"/><line style="stroke:#181818;stroke-width:1;" x1="201" x2="201" y1="334.0483" y2="342.0483"/></g><!--link DefaultMDView to MDOverview--><g class="link" data-entity-1="DefaultMDView" data-entity-2="MDOverview" data-source-line="37" data-uid="lnk13" id="link_DefaultMDView_MDOverview"><path codeLine="37" d="M193.1037,431.6709 C190.0237,450.2809 188.9763,456.5956 185.8963,475.2056" fill="none" id="DefaultMDView-MDOverview" style="stroke:#181818;stroke-width:1;"/><line style="stroke:#181818;stroke-width:1;" x1="189.8106" x2="197.7032" y1="427.0715" y2="428.3777"/><line style="stroke:#181818;stroke-width:1;" x1="189.3207" x2="197.2133" y1="430.0312" y2="431.3375"/><line style="stroke:#181818;stroke-width:1;" x1="193.1037" x2="194.41" y1="431.6709" y2="423.7783"/><line style="stroke:#181818;stroke-width:1;" x1="189.1894" x2="181.2968" y1="479.8051" y2="478.4988"/><line style="stroke:#181818;stroke-width:1;" x1="189.6793" x2="181.7867" y1="476.8453" y2="475.5391"/><line style="stroke:#181818;stroke-width:1;" x1="185.8963" x2="184.59" y1="475.2056" y2="483.0983"/></g><!--link DefaultMDView to DefaultTemplateProcessor--><g class="link" data-entity-1="DefaultMDView" data-entity-2="DefaultTemplateProcessor" data-source-line="38" data-uid="lnk14" id="link_DefaultMDView_DefaultTemplateProcessor"><path codeLine="38" d="M302.3561,426.8992 C346.1861,445.4692 383.4837,461.2778 427.3437,479.8578" fill="none" id="DefaultMDView-DefaultTemplateProcessor" style="stroke:#181818;stroke-width:1;"/><line style="stroke:#181818;stroke-width:1;" x1="297.1126" x2="300.2335" y1="429.0218" y2="421.6557"/><line style="stroke:#181818;stroke-width:1;" x1="299.8749" x2="302.9958" y1="430.1921" y2="422.826"/><line style="stroke:#181818;stroke-width:1;" x1="302.3561" x2="294.99" y1="426.8992" y2="423.7783"/><line style="stroke:#181818;stroke-width:1;" x1="432.5871" x2="429.4666" y1="477.7349" y2="485.1012"/><line style="stroke:#181818;stroke-width:1;" x1="429.8247" x2="426.7042" y1="476.5647" y2="483.931"/><line style="stroke:#181818;stroke-width:1;" x1="427.3437" x2="434.71" y1="479.8578" y2="482.9783"/></g><!--SRC=[hLBTIiCm5BxFKnnsDT7k0OO8Gcy65aN4-v2TTS4sASdP5CpUtRCscOrr5nCl6fgSBzyV8KqDmWksNIC9uS7MMi7AhB53Nen2k7TggmaLxHmAqKdr9ck4sSeGkerKw6VmAG1qsiEhnlV-2E3Q7LdSN5cUVj3L4fwSRRN7soFe6VskeJj67lZBEAfoobALb_EaO0ndfzwwHDaD1sa-f_Xp0zyQdfmsTKzx62Td9BPeI9As9iPNZVGUIjn8jl8_genlh5oVm9saxIZvW1kbpYna1HRqqz1osipVgXv4g_9nZsu_KkGNqvuas7YUwm8LRdvQPmYBHGXdwnPzzWWQcX2naFncdEMTXL0K_RsKwVVvMV4l]--></g></svg>