<svg xmlns="http://www.w3.org/2000/svg" xmlns:xlink="http://www.w3.org/1999/xlink" contentStyleType="text/css" data-diagram-type="CLASS" height="639px" preserveAspectRatio="none" style="width:485px;height:639px;background:#FFFFFF;" version="1.1" viewBox="0 0 485 639" width="485px" zoomAndPan="magnify"><title>GitScrumProject CLI OOP Architecture</title><defs/><g><g class="title" data-source-line="1"><text fill="#000000" font-family="sans-serif" font-size="14" font-weight="bold" lengthAdjust="spacing" textLength="272.002" x="99.7789" y="23.5352">GitScrumProject CLI OOP Architecture</text></g><!--class CLI--><g class="entity" data-entity="CLI" data-source-line="4" data-uid="ent0002" id="entity_CLI"><rect fill="#F1F1F1" height="64.4883" rx="2.5" ry="2.5" style="stroke:#181818;stroke-width:0.5;" width="66.1748" x="19.19" y="244.1683"/><ellipse cx="40.0356" cy="260.1683" fill="#B4A7E5" rx="11" ry="11" style="stroke:#181818;stroke-width:1;"/><path d="M36.4633,256.4334 L36.4633,254.2752 L43.8427,254.2752 L43.8427,256.4334 L41.3774,256.4334 L41.3774,264.5101 L43.8427,264.5101 L43.8427,266.6683 L36.4633,266.6683 L36.4633,264.5101 L38.9287,264.5101 L38.9287,256.4334 Z " fill="#000000"/><text fill="#000000" font-family="sans-serif" font-size="14" font-style="italic" lengthAdjust="spacing" textLength="21.1846" x="55.3346" y="265.4593">CLI</text><line style="stroke:#181818;stroke-width:0.5;" x1="20.19" x2="84.3648" y1="276.1683" y2="276.1683"/><line style="stroke:#181818;stroke-width:0.5;" x1="20.19" x2="84.3648" y1="284.1683" y2="284.1683"/><ellipse cx="30.19" cy="297.9124" fill="#84BE84" rx="3" ry="3" style="stroke:#038048;stroke-width:1;"/><text fill="#000000" font-family="sans-serif" font-size="14" lengthAdjust="spacing" textLength="40.1748" x="39.19" y="301.7034">start()</text></g><!--class Project--><g class="entity" data-entity="Project" data-source-line="8" data-uid="ent0003" id="entity_Project"><rect fill="#F1F1F1" height="64.4883" rx="2.5" ry="2.5" style="stroke:#181818;stroke-width:0.5;" width="163.4297" x="167.57" y="69.2183"/><ellipse cx="221.7687" cy="85.2183" fill="#B4A7E5" rx="11" ry="11" style="stroke:#181818;stroke-width:1;"/><path d="M218.1965,81.4834 L218.1965,79.3252 L225.5759,79.3252 L225.5759,81.4834 L223.1105,81.4834 L223.1105,89.5601 L225.5759,89.5601 L225.5759,91.7183 L218.1965,91.7183 L218.1965,89.5601 L220.6618,89.5601 L220.6618,81.4834 Z " fill="#000000"/><text fill="#000000" font-family="sans-serif" font-size="14" font-style="italic" lengthAdjust="spacing" textLength="46.5322" x="242.2687" y="90.5093">Project</text><line style="stroke:#181818;stroke-width:0.5;" x1="168.57" x2="329.9997" y1="101.2183" y2="101.2183"/><line style="stroke:#181818;stroke-width:0.5;" x1="168.57" x2="329.9997" y1="109.2183" y2="109.2183"/><ellipse cx="178.57" cy="122.9624" fill="#84BE84" rx="3" ry="3" style="stroke:#038048;stroke-width:1;"/><text fill="#000000" font-family="sans-serif" font-size="14" lengthAdjust="spacing" textLength="137.4297" x="187.57" y="126.7534">create(args: string[])</text></g><!--class DefaultCLI--><g class="entity" data-entity="DefaultCLI" data-source-line="12" data-uid="ent0004" id="entity_DefaultCLI"><rect fill="#F1F1F1" height="64.4883" rx="2.5" ry="2.5" style="stroke:#181818;stroke-width:0.5;" width="102.3213" x="30.12" y="410.3983"/><ellipse cx="45.12" cy="426.3983" fill="#ADD1B2" rx="11" ry="11" style="stroke:#181818;stroke-width:1;"/><path d="M47.5931,432.5413 Q47.0121,432.8402 46.3729,432.9896 Q45.7338,433.139 45.0282,433.139 Q42.5214,433.139 41.2015,431.4871 Q39.8817,429.8353 39.8817,426.7142 Q39.8817,423.5848 41.2015,421.9329 Q42.5214,420.2811 45.0282,420.2811 Q45.7338,420.2811 46.3812,420.4305 Q47.0287,420.5799 47.5931,420.8787 L47.5931,423.6014 Q46.9623,423.0204 46.3688,422.7506 Q45.7753,422.4808 45.1444,422.4808 Q43.7997,422.4808 43.1149,423.5475 Q42.4301,424.6141 42.4301,426.7142 Q42.4301,428.806 43.1149,429.8726 Q43.7997,430.9393 45.1444,430.9393 Q45.7753,430.9393 46.3688,430.6695 Q46.9623,430.3997 47.5931,429.8187 Z " fill="#000000"/><text fill="#000000" font-family="sans-serif" font-size="14" lengthAdjust="spacing" textLength="70.3213" x="59.12" y="431.6893">DefaultCLI</text><line style="stroke:#181818;stroke-width:0.5;" x1="31.12" x2="131.4413" y1="442.3983" y2="442.3983"/><line style="stroke:#181818;stroke-width:0.5;" x1="31.12" x2="131.4413" y1="450.3983" y2="450.3983"/><ellipse cx="41.12" cy="464.1424" fill="#84BE84" rx="3" ry="3" style="stroke:#038048;stroke-width:1;"/><text fill="#000000" font-family="sans-serif" font-size="14" lengthAdjust="spacing" textLength="40.1748" x="50.12" y="467.9334">start()</text></g><!--class ParameterParser--><g class="entity" data-entity="ParameterParser" data-source-line="16" data-uid="ent0005" id="entity_ParameterParser"><rect fill="#F1F1F1" height="80.9766" rx="2.5" ry="2.5" style="stroke:#181818;stroke-width:0.5;" width="148.5615" x="7" y="551.8783"/><ellipse cx="24.7602" cy="567.8783" fill="#ADD1B2" rx="11" ry="11" style="stroke:#181818;stroke-width:1;"/><path d="M27.2333,574.0213 Q26.6523,574.3202 26.0131,574.4696 Q25.374,574.619 24.6684,574.619 Q22.1616,574.619 20.8417,572.9671 Q19.5219,571.3153 19.5219,568.1942 Q19.5219,565.0648 20.8417,563.4129 Q22.1616,561.7611 24.6684,561.7611 Q25.374,561.7611 26.0214,561.9105 Q26.6689,562.0599 27.2333,562.3588 L27.2333,565.0814 Q26.6025,564.5004 26.009,564.2306 Q25.4155,563.9608 24.7846,563.9608 Q23.4399,563.9608 22.7551,565.0275 Q22.0703,566.0941 22.0703,568.1942 Q22.0703,570.286 22.7551,571.3526 Q23.4399,572.4193 24.7846,572.4193 Q25.4155,572.4193 26.009,572.1495 Q26.6025,571.8797 27.2333,571.2987 Z " fill="#000000"/><text fill="#000000" font-family="sans-serif" font-size="14" lengthAdjust="spacing" textLength="110.4277" x="39.3736" y="573.1693">ParameterParser</text><line style="stroke:#181818;stroke-width:0.5;" x1="8" x2="154.5615" y1="583.8783" y2="583.8783"/><rect fill="none" height="6" style="stroke:#C82930;stroke-width:1;" width="6" x="15" y="594.6224"/><text fill="#000000" font-family="sans-serif" font-size="14" lengthAdjust="spacing" textLength="86.8574" x="27" y="601.4134">args: string[]</text><line style="stroke:#181818;stroke-width:0.5;" x1="8" x2="154.5615" y1="608.3666" y2="608.3666"/><ellipse cx="18" cy="622.1107" fill="#84BE84" rx="3" ry="3" style="stroke:#038048;stroke-width:1;"/><text fill="#000000" font-family="sans-serif" font-size="14" lengthAdjust="spacing" textLength="122.5615" x="27" y="625.9017">parse(): ParseArgs</text></g><!--class ParseArgs--><g class="entity" data-entity="ParseArgs" data-source-line="21" data-uid="ent0006" id="entity_ParseArgs"><rect fill="#F1F1F1" height="113.9531" rx="2.5" ry="2.5" style="stroke:#181818;stroke-width:0.5;" width="112.5498" x="366.01" y="44.4883"/><ellipse cx="386.9325" cy="60.4883" fill="#ADD1B2" rx="11" ry="11" style="stroke:#181818;stroke-width:1;"/><path d="M389.4057,66.6313 Q388.8246,66.9302 388.1854,67.0796 Q387.5463,67.229 386.8407,67.229 Q384.3339,67.229 383.0141,65.5771 Q381.6942,63.9253 381.6942,60.8042 Q381.6942,57.6748 383.0141,56.0229 Q384.3339,54.3711 386.8407,54.3711 Q387.5463,54.3711 388.1937,54.5205 Q388.8412,54.6699 389.4057,54.9688 L389.4057,57.6914 Q388.7748,57.1104 388.1813,56.8406 Q387.5878,56.5708 386.9569,56.5708 Q385.6122,56.5708 384.9274,57.6375 Q384.2426,58.7041 384.2426,60.8042 Q384.2426,62.896 384.9274,63.9626 Q385.6122,65.0293 386.9569,65.0293 Q387.5878,65.0293 388.1813,64.7595 Q388.7748,64.4897 389.4057,63.9087 Z " fill="#000000"/><text fill="#000000" font-family="sans-serif" font-size="14" lengthAdjust="spacing" textLength="67.3887" x="402.2486" y="65.7793">ParseArgs</text><line style="stroke:#181818;stroke-width:0.5;" x1="367.01" x2="477.5598" y1="76.4883" y2="76.4883"/><ellipse cx="377.01" cy="90.2324" fill="none" rx="3" ry="3" style="stroke:#038048;stroke-width:1;"/><text fill="#000000" font-family="sans-serif" font-size="14" lengthAdjust="spacing" textLength="72.167" x="386.01" y="94.0234">className</text><ellipse cx="377.01" cy="106.7207" fill="none" rx="3" ry="3" style="stroke:#038048;stroke-width:1;"/><text fill="#000000" font-family="sans-serif" font-size="14" lengthAdjust="spacing" textLength="67.1426" x="386.01" y="110.5117">command</text><ellipse cx="377.01" cy="123.209" fill="none" rx="3" ry="3" style="stroke:#038048;stroke-width:1;"/><text fill="#000000" font-family="sans-serif" font-size="14" lengthAdjust="spacing" textLength="29.1621" x="386.01" y="127">type</text><ellipse cx="377.01" cy="139.6973" fill="none" rx="3" ry="3" style="stroke:#038048;stroke-width:1;"/><text fill="#000000" font-family="sans-serif" font-size="14" lengthAdjust="spacing" textLength="86.5498" x="386.01" y="143.4883">projectName</text><line style="stroke:#181818;stroke-width:0.5;" x1="367.01" x2="477.5598" y1="150.4414" y2="150.4414"/></g><!--class GitScrumProject--><g class="entity" data-entity="GitScrumProject" data-source-line="28" data-uid="ent0007" id="entity_GitScrumProject"><rect fill="#F1F1F1" height="113.9531" rx="2.5" ry="2.5" style="stroke:#181818;stroke-width:0.5;" width="258.0801" x="120.24" y="219.4383"/><ellipse cx="190.9646" cy="235.4383" fill="#ADD1B2" rx="11" ry="11" style="stroke:#181818;stroke-width:1;"/><path d="M193.4378,241.5813 Q192.8567,241.8802 192.2175,242.0296 Q191.5784,242.179 190.8728,242.179 Q188.366,242.179 187.0462,240.5271 Q185.7263,238.8753 185.7263,235.7542 Q185.7263,232.6248 187.0462,230.9729 Q188.366,229.3211 190.8728,229.3211 Q191.5784,229.3211 192.2258,229.4705 Q192.8733,229.6199 193.4378,229.9188 L193.4378,232.6414 Q192.8069,232.0604 192.2134,231.7906 Q191.6199,231.5208 190.989,231.5208 Q189.6443,231.5208 188.9595,232.5875 Q188.2747,233.6541 188.2747,235.7542 Q188.2747,237.846 188.9595,238.9126 Q189.6443,239.9793 190.989,239.9793 Q191.6199,239.9793 192.2134,239.7095 Q192.8069,239.4397 193.4378,238.8587 Z " fill="#000000"/><text fill="#000000" font-family="sans-serif" font-size="14" lengthAdjust="spacing" textLength="108.1309" x="211.4646" y="240.7293">GitScrumProject</text><line style="stroke:#181818;stroke-width:0.5;" x1="121.24" x2="377.3201" y1="251.4383" y2="251.4383"/><rect fill="none" height="6" style="stroke:#C82930;stroke-width:1;" width="6" x="128.24" y="262.1824"/><text fill="#000000" font-family="sans-serif" font-size="14" lengthAdjust="spacing" textLength="45.3086" x="140.24" y="268.9734">cli: CLI</text><line style="stroke:#181818;stroke-width:0.5;" x1="121.24" x2="377.3201" y1="275.9266" y2="275.9266"/><ellipse cx="131.24" cy="289.6707" fill="#84BE84" rx="3" ry="3" style="stroke:#038048;stroke-width:1;"/><text fill="#000000" font-family="sans-serif" font-size="14" lengthAdjust="spacing" textLength="81.1631" x="140.24" y="293.4617">static start()</text><ellipse cx="131.24" cy="306.159" fill="#84BE84" rx="3" ry="3" style="stroke:#038048;stroke-width:1;"/><text fill="#000000" font-family="sans-serif" font-size="14" lengthAdjust="spacing" textLength="137.4297" x="140.24" y="309.95">create(args: string[])</text><rect fill="#F24D5C" height="6" style="stroke:#C82930;stroke-width:1;" width="6" x="128.24" y="319.6473"/><text fill="#000000" font-family="sans-serif" font-size="14" lengthAdjust="spacing" textLength="232.0801" x="140.24" y="326.4383">createProject(projectName: string)</text></g><!--reverse link GitScrumProject to DefaultCLI--><g class="link" data-entity-1="GitScrumProject" data-entity-2="DefaultCLI" data-source-line="35" data-uid="lnk8" id="link_GitScrumProject_DefaultCLI"><path codeLine="35" d="M183.3504,341.8582 C157.1204,367.5082 135.59,388.5483 113.42,410.2283" fill="none" id="GitScrumProject-backto-DefaultCLI" style="stroke:#181818;stroke-width:1;"/><polygon fill="none" points="191.93,333.4683,184.8436,334.8034,183.3504,341.8582,190.4368,340.5231,191.93,333.4683" style="stroke:#181818;stroke-width:1;"/><text fill="#000000" font-family="sans-serif" font-size="13" lengthAdjust="spacing" textLength="63.4448" x="161.24" y="376.9666">composes</text></g><!--reverse link DefaultCLI to ParameterParser--><g class="link" data-entity-1="DefaultCLI" data-entity-2="ParameterParser" data-source-line="36" data-uid="lnk9" id="link_DefaultCLI_ParameterParser"><path codeLine="36" d="M81.28,487.3283 C81.28,509.6283 81.28,527.6383 81.28,551.5483" fill="none" id="DefaultCLI-backto-ParameterParser" style="stroke:#181818;stroke-width:1;"/><polygon fill="none" points="81.28,475.3283,77.28,481.3283,81.28,487.3283,85.28,481.3283,81.28,475.3283" style="stroke:#181818;stroke-width:1;"/><text fill="#000000" font-family="sans-serif" font-size="13" lengthAdjust="spacing" textLength="28.5645" x="82.28" y="518.4466">uses</text></g><!--reverse link CLI to DefaultCLI--><g class="link" data-entity-1="CLI" data-entity-2="DefaultCLI" data-source-line="38" data-uid="lnk10" id="link_CLI_DefaultCLI"><path codeLine="38" d="M61.003,326.8035 C66.143,355.8835 70.58,381.0183 75.71,410.0683" fill="none" id="CLI-backto-DefaultCLI" style="stroke:#181818;stroke-width:1;stroke-dasharray:7,7;"/><polygon fill="none" points="57.87,309.0783,55.0946,327.8479,66.9114,325.7592,57.87,309.0783" style="stroke:#181818;stroke-width:1;"/></g><!--reverse link Project to GitScrumProject--><g class="link" data-entity-1="Project" data-entity-2="GitScrumProject" data-source-line="39" data-uid="lnk11" id="link_Project_GitScrumProject"><path codeLine="39" d="M249.28,152.1883 C249.28,175.8883 249.28,190.8983 249.28,219.0483" fill="none" id="Project-backto-GitScrumProject" style="stroke:#181818;stroke-width:1;stroke-dasharray:7,7;"/><polygon fill="none" points="249.28,134.1883,243.28,152.1883,255.28,152.1883,249.28,134.1883" style="stroke:#181818;stroke-width:1;"/></g><!--SRC=[TP3FIiH03CRlUOeSkqZt0GOlYu88uXOyYeTXpAuZ_KScFOZwxaxILcQBtcQ-VFdbIoHAItWNvIdmr3Kyl5CGl7cun-EnmGE7joXPcPW08FP2VFA1pF09Y5T9F4krW- -okcBC4PYyKENvd1mcuTYVdr-i8RG-9RobavzQ-Oiu6nhFlgFCpez4RAxw4gTzerQhdKEp7NBz0Z5BIoGL7pFKFaFN-VvLd_8ncZJE-StnozZUo6A4DZeznX9SOi0r__-hQvzL5bHLp5jzjlzsv53NvRaSvkpZa2X1eQffUpA7axf0wzTV-tr1WHLk-cOY_000]--></g></svg>