<svg xmlns="http://www.w3.org/2000/svg" xmlns:xlink="http://www.w3.org/1999/xlink" contentStyleType="text/css" data-diagram-type="SEQUENCE" height="1732px" preserveAspectRatio="none" style="width:1175px;height:1732px;background:#FFFFFF;" version="1.1" viewBox="0 0 1175 1732" width="1175px" zoomAndPan="magnify"><title>Web4 Requirement Overview Generation Process</title><defs/><g><text fill="#000000" font-family="sans-serif" font-size="14" font-weight="bold" lengthAdjust="spacing" textLength="351.8389" x="410.5493" y="28.5352">Web4 Requirement Overview Generation Process</text><g><title>...E3F2FD..</title><rect fill="#FFFFFF" height="1549.875" style="stroke:#181818;stroke-width:1;" width="10" x="415.8271" y="121.7754"/></g><g><title>...E8F5E8..</title><rect fill="#FFFFFF" height="1105.9746" style="stroke:#181818;stroke-width:1;" width="10" x="616.4531" y="348.2598"/></g><g><title>...FCE4EC..</title><rect fill="#FFFFFF" height="270.1738" style="stroke:#181818;stroke-width:1;" width="10" x="823.4521" y="769.918"/></g><g><title>...FFF3E0..</title><rect fill="#FFFFFF" height="370.832" style="stroke:#181818;stroke-width:1;" width="10" x="1026.3252" y="1083.4023"/></g><rect fill="none" height="183.1738" style="stroke:#000000;stroke-width:1.5;" width="465.6006" x="341.8457" y="136.7754"/><rect fill="none" height="134.5527" style="stroke:#000000;stroke-width:1.5;" width="586.1943" x="160" y="405.5703"/><rect fill="none" height="348.1055" style="stroke:#000000;stroke-width:1.5;" width="709.4795" x="331.8457" y="706.9863"/><rect fill="none" height="316.7949" style="stroke:#000000;stroke-width:1.5;" width="689.4795" x="341.8457" y="731.2969"/><g><title>Product Owner</title><rect fill="#000000" fill-opacity="0.00000" height="1590.1855" width="8" x="223.1416" y="90.4648"/><line style="stroke:#181818;stroke-width:0.5;stroke-dasharray:5,5;" x1="227" x2="227" y1="90.4648" y2="1680.6504"/></g><g><title>...E3F2FD..</title><rect fill="#000000" fill-opacity="0.00000" height="1590.1855" width="8" x="416.8271" y="90.4648"/><line style="stroke:#181818;stroke-width:0.5;stroke-dasharray:5,5;" x1="419.8457" x2="419.8457" y1="90.4648" y2="1680.6504"/></g><g><title>...E8F5E8..</title><rect fill="#000000" fill-opacity="0.00000" height="1590.1855" width="8" x="617.4531" y="90.4648"/><line style="stroke:#181818;stroke-width:0.5;stroke-dasharray:5,5;" x1="620.7119" x2="620.7119" y1="90.4648" y2="1680.6504"/></g><g><title>...FCE4EC..</title><rect fill="#000000" fill-opacity="0.00000" height="1590.1855" width="8" x="824.4521" y="90.4648"/><line style="stroke:#181818;stroke-width:0.5;stroke-dasharray:5,5;" x1="828.0249" x2="828.0249" y1="90.4648" y2="1680.6504"/></g><g><title>...FFF3E0..</title><rect fill="#000000" fill-opacity="0.00000" height="1590.1855" width="8" x="1027.3252" y="90.4648"/><line style="stroke:#181818;stroke-width:0.5;stroke-dasharray:5,5;" x1="1030.9019" x2="1030.9019" y1="90.4648" y2="1680.6504"/></g><g class="participant participant-head" data-participant="PO"><rect fill="#E2E2F0" height="30.4883" rx="2.5" ry="2.5" style="stroke:#181818;stroke-width:0.5;" width="114.2832" x="170" y="58.9766"/><text fill="#000000" font-family="sans-serif" font-size="14" lengthAdjust="spacing" textLength="100.2832" x="177" y="79.5117">Product Owner</text></g><g class="participant participant-tail" data-participant="PO"><rect fill="#E2E2F0" height="30.4883" rx="2.5" ry="2.5" style="stroke:#181818;stroke-width:0.5;" width="114.2832" x="170" y="1679.6504"/><text fill="#000000" font-family="sans-serif" font-size="14" lengthAdjust="spacing" textLength="100.2832" x="177" y="1700.1855">Product Owner</text></g><g class="participant participant-head" data-participant="Req"><rect fill="#E2E2F0" height="46.9766" rx="2.5" ry="2.5" style="stroke:#181818;stroke-width:0.5;" width="137.9629" x="351.8457" y="42.4883"/><text fill="#000000" font-family="sans-serif" font-size="14" font-style="italic" lengthAdjust="spacing" textLength="74.3135" x="383.6704" y="63.0234">&#171;#E3F2FD&#187;</text><text fill="#000000" font-family="sans-serif" font-size="14" lengthAdjust="spacing" textLength="123.9629" x="358.8457" y="79.5117">Web4Requirement</text></g><g class="participant participant-tail" data-participant="Req"><rect fill="#E2E2F0" height="46.9766" rx="2.5" ry="2.5" style="stroke:#181818;stroke-width:0.5;" width="137.9629" x="351.8457" y="1679.6504"/><text fill="#000000" font-family="sans-serif" font-size="14" font-style="italic" lengthAdjust="spacing" textLength="74.3135" x="383.6704" y="1700.1855">&#171;#E3F2FD&#187;</text><text fill="#000000" font-family="sans-serif" font-size="14" lengthAdjust="spacing" textLength="123.9629" x="358.8457" y="1716.6738">Web4Requirement</text></g><g class="participant participant-head" data-participant="Generator"><rect fill="#E2E2F0" height="46.9766" rx="2.5" ry="2.5" style="stroke:#181818;stroke-width:0.5;" width="229.4824" x="506.7119" y="42.4883"/><text fill="#000000" font-family="sans-serif" font-size="14" font-style="italic" lengthAdjust="spacing" textLength="72.7617" x="585.0723" y="63.0234">&#171;#E8F5E8&#187;</text><text fill="#000000" font-family="sans-serif" font-size="14" lengthAdjust="spacing" textLength="215.4824" x="513.7119" y="79.5117">RequirementOverviewGenerator</text></g><g class="participant participant-tail" data-participant="Generator"><rect fill="#E2E2F0" height="46.9766" rx="2.5" ry="2.5" style="stroke:#181818;stroke-width:0.5;" width="229.4824" x="506.7119" y="1679.6504"/><text fill="#000000" font-family="sans-serif" font-size="14" font-style="italic" lengthAdjust="spacing" textLength="72.7617" x="585.0723" y="1700.1855">&#171;#E8F5E8&#187;</text><text fill="#000000" font-family="sans-serif" font-size="14" lengthAdjust="spacing" textLength="215.4824" x="513.7119" y="1716.6738">RequirementOverviewGenerator</text></g><g class="participant participant-head" data-participant="MDView"><rect fill="#E2E2F0" height="46.9766" rx="2.5" ry="2.5" style="stroke:#181818;stroke-width:0.5;" width="154.8545" x="751.0249" y="42.4883"/><text fill="#000000" font-family="sans-serif" font-size="14" font-style="italic" lengthAdjust="spacing" textLength="74.4297" x="791.2373" y="63.0234">&#171;#FCE4EC&#187;</text><text fill="#000000" font-family="sans-serif" font-size="14" lengthAdjust="spacing" textLength="140.8545" x="758.0249" y="79.5117">RequirementMDView</text></g><g class="participant participant-tail" data-participant="MDView"><rect fill="#E2E2F0" height="46.9766" rx="2.5" ry="2.5" style="stroke:#181818;stroke-width:0.5;" width="154.8545" x="751.0249" y="1679.6504"/><text fill="#000000" font-family="sans-serif" font-size="14" font-style="italic" lengthAdjust="spacing" textLength="74.4297" x="791.2373" y="1700.1855">&#171;#FCE4EC&#187;</text><text fill="#000000" font-family="sans-serif" font-size="14" lengthAdjust="spacing" textLength="140.8545" x="758.0249" y="1716.6738">RequirementMDView</text></g><g class="participant participant-head" data-participant="Output"><rect fill="#E2E2F0" height="46.9766" rx="2.5" ry="2.5" style="stroke:#181818;stroke-width:0.5;" width="130.8467" x="965.9019" y="42.4883"/><text fill="#000000" font-family="sans-serif" font-size="14" font-style="italic" lengthAdjust="spacing" textLength="71.333" x="995.6587" y="63.0234">&#171;#FFF3E0&#187;</text><text fill="#000000" font-family="sans-serif" font-size="14" lengthAdjust="spacing" textLength="116.8467" x="972.9019" y="79.5117">requirements.md</text></g><g class="participant participant-tail" data-participant="Output"><rect fill="#E2E2F0" height="46.9766" rx="2.5" ry="2.5" style="stroke:#181818;stroke-width:0.5;" width="130.8467" x="965.9019" y="1679.6504"/><text fill="#000000" font-family="sans-serif" font-size="14" font-style="italic" lengthAdjust="spacing" textLength="71.333" x="995.6587" y="1700.1855">&#171;#FFF3E0&#187;</text><text fill="#000000" font-family="sans-serif" font-size="14" lengthAdjust="spacing" textLength="116.8467" x="972.9019" y="1716.6738">requirements.md</text></g><g><title>...E3F2FD..</title><rect fill="#FFFFFF" height="1549.875" style="stroke:#181818;stroke-width:1;" width="10" x="415.8271" y="121.7754"/></g><g><title>...E8F5E8..</title><rect fill="#FFFFFF" height="1105.9746" style="stroke:#181818;stroke-width:1;" width="10" x="616.4531" y="348.2598"/></g><g><title>...FCE4EC..</title><rect fill="#FFFFFF" height="270.1738" style="stroke:#181818;stroke-width:1;" width="10" x="823.4521" y="769.918"/></g><g><title>...FFF3E0..</title><rect fill="#FFFFFF" height="370.832" style="stroke:#181818;stroke-width:1;" width="10" x="1026.3252" y="1083.4023"/></g><g class="message" data-participant-1="PO" data-participant-2="Req"><polygon fill="#181818" points="403.8271,117.7754,413.8271,121.7754,403.8271,125.7754,407.8271,121.7754" style="stroke:#181818;stroke-width:1;"/><line style="stroke:#181818;stroke-width:1;" x1="227.1416" x2="409.8271" y1="121.7754" y2="121.7754"/><text fill="#000000" font-family="sans-serif" font-size="13" lengthAdjust="spacing" textLength="169.6855" x="234.1416" y="117.0332">create requirement objects</text></g><path d="M341.8457,136.7754 L416.2925,136.7754 L416.2925,144.0859 L406.2925,154.0859 L341.8457,154.0859 L341.8457,136.7754" fill="#EEEEEE" style="stroke:#000000;stroke-width:1.5;"/><rect fill="none" height="183.1738" style="stroke:#000000;stroke-width:1.5;" width="465.6006" x="341.8457" y="136.7754"/><text fill="#000000" font-family="sans-serif" font-size="13" font-weight="bold" lengthAdjust="spacing" textLength="29.4468" x="356.8457" y="150.3438">loop</text><text fill="#000000" font-family="sans-serif" font-size="11" font-weight="bold" lengthAdjust="spacing" textLength="127.7568" x="431.2925" y="149.4102">[for each requirement]</text><g class="message" data-participant-1="Req" data-participant-2="Req"><line style="stroke:#181818;stroke-width:1;" x1="425.8271" x2="467.8271" y1="194.8623" y2="194.8623"/><line style="stroke:#181818;stroke-width:1;" x1="467.8271" x2="467.8271" y1="194.8623" y2="207.8623"/><line style="stroke:#181818;stroke-width:1;" x1="426.8271" x2="467.8271" y1="207.8623" y2="207.8623"/><polygon fill="#181818" points="436.8271,203.8623,426.8271,207.8623,436.8271,211.8623,432.8271,207.8623" style="stroke:#181818;stroke-width:1;"/><text fill="#000000" font-family="sans-serif" font-size="13" lengthAdjust="spacing" textLength="159.5547" x="432.8271" y="190.1201">init(requirementScenario)</text></g><path d="M613.5547,159.0859 L613.5547,230.0859 L786.5547,230.0859 L786.5547,169.0859 L776.5547,159.0859 L613.5547,159.0859" fill="#FEFFDD" style="stroke:#181818;stroke-width:0.5;"/><path d="M776.5547,159.0859 L776.5547,169.0859 L786.5547,169.0859 L776.5547,159.0859" fill="#FEFFDD" style="stroke:#181818;stroke-width:0.5;"/><text fill="#000000" font-family="sans-serif" font-size="13" lengthAdjust="spacing" textLength="87.7119" x="619.5547" y="176.6543">Web4 Pattern:</text><text fill="#000000" font-family="sans-serif" font-size="13" lengthAdjust="spacing" textLength="126.9468" x="619.5547" y="191.9648">&#8226; Empty constructor</text><text fill="#000000" font-family="sans-serif" font-size="13" lengthAdjust="spacing" textLength="146.9292" x="619.5547" y="207.2754">&#8226; Scenario initialization</text><text fill="#000000" font-family="sans-serif" font-size="13" lengthAdjust="spacing" textLength="152.0645" x="619.5547" y="222.5859">&#8226; IOR-based traceability</text><g class="message" data-participant-1="Req" data-participant-2="Req"><line style="stroke:#181818;stroke-width:1;" x1="425.8271" x2="467.8271" y1="256.6387" y2="256.6387"/><line style="stroke:#181818;stroke-width:1;" x1="467.8271" x2="467.8271" y1="256.6387" y2="269.6387"/><line style="stroke:#181818;stroke-width:1;" x1="426.8271" x2="467.8271" y1="269.6387" y2="269.6387"/><polygon fill="#181818" points="436.8271,265.6387,426.8271,269.6387,436.8271,273.6387,432.8271,269.6387" style="stroke:#181818;stroke-width:1;"/><text fill="#000000" font-family="sans-serif" font-size="13" lengthAdjust="spacing" textLength="166.626" x="432.8271" y="251.8965">addTestReference(testIOR)</text></g><g class="message" data-participant-1="Req" data-participant-2="Req"><line style="stroke:#181818;stroke-width:1;" x1="425.8271" x2="467.8271" y1="298.9492" y2="298.9492"/><line style="stroke:#181818;stroke-width:1;" x1="467.8271" x2="467.8271" y1="298.9492" y2="311.9492"/><line style="stroke:#181818;stroke-width:1;" x1="426.8271" x2="467.8271" y1="311.9492" y2="311.9492"/><polygon fill="#181818" points="436.8271,307.9492,426.8271,311.9492,436.8271,315.9492,432.8271,311.9492" style="stroke:#181818;stroke-width:1;"/><text fill="#000000" font-family="sans-serif" font-size="13" lengthAdjust="spacing" textLength="128.9971" x="432.8271" y="294.207">updateStatus(status)</text></g><g class="message" data-participant-1="PO" data-participant-2="Generator"><polygon fill="#181818" points="604.4531,344.2598,614.4531,348.2598,604.4531,352.2598,608.4531,348.2598" style="stroke:#181818;stroke-width:1;"/><line style="stroke:#181818;stroke-width:1;" x1="227.1416" x2="610.4531" y1="348.2598" y2="348.2598"/><text fill="#000000" font-family="sans-serif" font-size="13" lengthAdjust="spacing" textLength="163.0776" x="234.1416" y="343.5176">create overview generator</text></g><g class="message" data-participant-1="Generator" data-participant-2="Generator"><line style="stroke:#181818;stroke-width:1;" x1="626.4531" x2="668.4531" y1="377.5703" y2="377.5703"/><line style="stroke:#181818;stroke-width:1;" x1="668.4531" x2="668.4531" y1="377.5703" y2="390.5703"/><line style="stroke:#181818;stroke-width:1;" x1="627.4531" x2="668.4531" y1="390.5703" y2="390.5703"/><polygon fill="#181818" points="637.4531,386.5703,627.4531,390.5703,637.4531,394.5703,633.4531,390.5703" style="stroke:#181818;stroke-width:1;"/><text fill="#000000" font-family="sans-serif" font-size="13" lengthAdjust="spacing" textLength="137.1348" x="633.4531" y="372.8281">init(overviewScenario)</text></g><path d="M160,405.5703 L234.4468,405.5703 L234.4468,412.8809 L224.4468,422.8809 L160,422.8809 L160,405.5703" fill="#EEEEEE" style="stroke:#000000;stroke-width:1.5;"/><rect fill="none" height="134.5527" style="stroke:#000000;stroke-width:1.5;" width="586.1943" x="160" y="405.5703"/><text fill="#000000" font-family="sans-serif" font-size="13" font-weight="bold" lengthAdjust="spacing" textLength="29.4468" x="175" y="419.1387">loop</text><text fill="#000000" font-family="sans-serif" font-size="11" font-weight="bold" lengthAdjust="spacing" textLength="121.6069" x="249.4468" y="418.2051">[for all requirements]</text><g class="message" data-participant-1="PO" data-participant-2="Generator"><polygon fill="#181818" points="604.4531,440.1914,614.4531,444.1914,604.4531,448.1914,608.4531,444.1914" style="stroke:#181818;stroke-width:1;"/><line style="stroke:#181818;stroke-width:1;" x1="227.1416" x2="610.4531" y1="444.1914" y2="444.1914"/><text fill="#000000" font-family="sans-serif" font-size="13" lengthAdjust="spacing" textLength="189.7822" x="234.1416" y="439.4492">addRequirement(requirement)</text></g><g class="message" data-participant-1="Generator" data-participant-2="Req"><polygon fill="#181818" points="436.8271,469.502,426.8271,473.502,436.8271,477.502,432.8271,473.502" style="stroke:#181818;stroke-width:1;"/><line style="stroke:#181818;stroke-width:1;" x1="430.8271" x2="615.4531" y1="473.502" y2="473.502"/><text fill="#000000" font-family="sans-serif" font-size="13" lengthAdjust="spacing" textLength="86.5503" x="442.8271" y="468.7598">getMetadata()</text></g><g class="message" data-participant-1="Generator" data-participant-2="Req"><polygon fill="#181818" points="436.8271,498.8125,426.8271,502.8125,436.8271,506.8125,432.8271,502.8125" style="stroke:#181818;stroke-width:1;"/><line style="stroke:#181818;stroke-width:1;" x1="430.8271" x2="615.4531" y1="502.8125" y2="502.8125"/><text fill="#000000" font-family="sans-serif" font-size="13" lengthAdjust="spacing" textLength="101.5752" x="442.8271" y="498.0703">getTraceability()</text></g><g class="message" data-participant-1="Req" data-participant-2="Generator"><polygon fill="#181818" points="604.4531,528.123,614.4531,532.123,604.4531,536.123,608.4531,532.123" style="stroke:#181818;stroke-width:1;"/><line style="stroke:#181818;stroke-width:1;stroke-dasharray:2,2;" x1="425.8271" x2="610.4531" y1="532.123" y2="532.123"/><text fill="#000000" font-family="sans-serif" font-size="13" lengthAdjust="spacing" textLength="108.9575" x="432.8271" y="527.3809">requirement data</text></g><g class="message" data-participant-1="PO" data-participant-2="Generator"><polygon fill="#181818" points="604.4531,564.4336,614.4531,568.4336,604.4531,572.4336,608.4531,568.4336" style="stroke:#181818;stroke-width:1;"/><line style="stroke:#181818;stroke-width:1;" x1="227.1416" x2="610.4531" y1="568.4336" y2="568.4336"/><text fill="#000000" font-family="sans-serif" font-size="13" lengthAdjust="spacing" textLength="141.7876" x="234.1416" y="563.6914">generateOverviewMD()</text></g><g class="message" data-participant-1="Generator" data-participant-2="Generator"><line style="stroke:#181818;stroke-width:1;" x1="626.4531" x2="668.4531" y1="617.21" y2="617.21"/><line style="stroke:#181818;stroke-width:1;" x1="668.4531" x2="668.4531" y1="617.21" y2="630.21"/><line style="stroke:#181818;stroke-width:1;" x1="627.4531" x2="668.4531" y1="630.21" y2="630.21"/><polygon fill="#181818" points="637.4531,626.21,627.4531,630.21,637.4531,634.21,633.4531,630.21" style="stroke:#181818;stroke-width:1;"/><text fill="#000000" font-family="sans-serif" font-size="13" lengthAdjust="spacing" textLength="85.8013" x="633.4531" y="612.4678">getOverview()</text></g><path d="M740.8013,581.4336 L740.8013,652.4336 L905.8013,652.4336 L905.8013,591.4336 L895.8013,581.4336 L740.8013,581.4336" fill="#FEFFDD" style="stroke:#181818;stroke-width:0.5;"/><path d="M895.8013,581.4336 L895.8013,591.4336 L905.8013,591.4336 L895.8013,581.4336" fill="#FEFFDD" style="stroke:#181818;stroke-width:0.5;"/><text fill="#000000" font-family="sans-serif" font-size="13" lengthAdjust="spacing" textLength="61.8135" x="746.8013" y="599.002">Calculate:</text><text fill="#000000" font-family="sans-serif" font-size="13" lengthAdjust="spacing" textLength="144.3076" x="746.8013" y="614.3125">&#8226; Completion statistics</text><text fill="#000000" font-family="sans-serif" font-size="13" lengthAdjust="spacing" textLength="130.2666" x="746.8013" y="629.623">&#8226; Priority breakdown</text><text fill="#000000" font-family="sans-serif" font-size="13" lengthAdjust="spacing" textLength="98.7505" x="746.8013" y="644.9336">&#8226; Epic grouping</text><g class="message" data-participant-1="Generator" data-participant-2="Generator"><line style="stroke:#181818;stroke-width:1;" x1="626.4531" x2="668.4531" y1="678.9863" y2="678.9863"/><line style="stroke:#181818;stroke-width:1;" x1="668.4531" x2="668.4531" y1="678.9863" y2="691.9863"/><line style="stroke:#181818;stroke-width:1;" x1="627.4531" x2="668.4531" y1="691.9863" y2="691.9863"/><polygon fill="#181818" points="637.4531,687.9863,627.4531,691.9863,637.4531,695.9863,633.4531,691.9863" style="stroke:#181818;stroke-width:1;"/><text fill="#000000" font-family="sans-serif" font-size="13" lengthAdjust="spacing" textLength="172.999" x="633.4531" y="674.2441">groupRequirementsByEpic()</text></g><path d="M331.8457,706.9863 L406.2925,706.9863 L406.2925,714.2969 L396.2925,724.2969 L331.8457,724.2969 L331.8457,706.9863" fill="#EEEEEE" style="stroke:#000000;stroke-width:1.5;"/><rect fill="none" height="348.1055" style="stroke:#000000;stroke-width:1.5;" width="709.4795" x="331.8457" y="706.9863"/><text fill="#000000" font-family="sans-serif" font-size="13" font-weight="bold" lengthAdjust="spacing" textLength="29.4468" x="346.8457" y="720.5547">loop</text><text fill="#000000" font-family="sans-serif" font-size="11" font-weight="bold" lengthAdjust="spacing" textLength="81.1465" x="421.2925" y="719.6211">[for each epic]</text><path d="M341.8457,731.2969 L416.2925,731.2969 L416.2925,738.6074 L406.2925,748.6074 L341.8457,748.6074 L341.8457,731.2969" fill="#EEEEEE" style="stroke:#000000;stroke-width:1.5;"/><rect fill="none" height="316.7949" style="stroke:#000000;stroke-width:1.5;" width="689.4795" x="341.8457" y="731.2969"/><text fill="#000000" font-family="sans-serif" font-size="13" font-weight="bold" lengthAdjust="spacing" textLength="29.4468" x="356.8457" y="744.8652">loop</text><text fill="#000000" font-family="sans-serif" font-size="11" font-weight="bold" lengthAdjust="spacing" textLength="168.9746" x="431.2925" y="743.9316">[for each requirement in epic]</text><g class="message" data-participant-1="Generator" data-participant-2="Req"><polygon fill="#181818" points="436.8271,765.918,426.8271,769.918,436.8271,773.918,432.8271,769.918" style="stroke:#181818;stroke-width:1;"/><line style="stroke:#181818;stroke-width:1;" x1="430.8271" x2="615.4531" y1="769.918" y2="769.918"/><text fill="#000000" font-family="sans-serif" font-size="13" lengthAdjust="spacing" textLength="114.1689" x="442.8271" y="765.1758">generateMDView()</text></g><g class="message" data-participant-1="Req" data-participant-2="MDView"><polygon fill="#181818" points="811.4521,795.2285,821.4521,799.2285,811.4521,803.2285,815.4521,799.2285" style="stroke:#181818;stroke-width:1;"/><line style="stroke:#181818;stroke-width:1;" x1="425.8271" x2="817.4521" y1="799.2285" y2="799.2285"/><text fill="#000000" font-family="sans-serif" font-size="13" lengthAdjust="spacing" textLength="189.1411" x="432.8271" y="794.4863">create MDView representation</text></g><g class="message" data-participant-1="MDView" data-participant-2="MDView"><line style="stroke:#181818;stroke-width:1;" x1="833.4521" x2="875.4521" y1="828.5391" y2="828.5391"/><line style="stroke:#181818;stroke-width:1;" x1="875.4521" x2="875.4521" y1="828.5391" y2="841.5391"/><line style="stroke:#181818;stroke-width:1;" x1="834.4521" x2="875.4521" y1="841.5391" y2="841.5391"/><polygon fill="#181818" points="844.4521,837.5391,834.4521,841.5391,844.4521,845.5391,840.4521,841.5391" style="stroke:#181818;stroke-width:1;"/><text fill="#000000" font-family="sans-serif" font-size="13" lengthAdjust="spacing" textLength="152.02" x="840.4521" y="823.7969">formatCheckboxStatus()</text></g><g class="message" data-participant-1="MDView" data-participant-2="MDView"><line style="stroke:#181818;stroke-width:1;" x1="833.4521" x2="875.4521" y1="870.8496" y2="870.8496"/><line style="stroke:#181818;stroke-width:1;" x1="875.4521" x2="875.4521" y1="870.8496" y2="883.8496"/><line style="stroke:#181818;stroke-width:1;" x1="834.4521" x2="875.4521" y1="883.8496" y2="883.8496"/><polygon fill="#181818" points="844.4521,879.8496,834.4521,883.8496,844.4521,887.8496,840.4521,883.8496" style="stroke:#181818;stroke-width:1;"/><text fill="#000000" font-family="sans-serif" font-size="13" lengthAdjust="spacing" textLength="82.2148" x="840.4521" y="866.1074">formatUUID()</text></g><g class="message" data-participant-1="MDView" data-participant-2="MDView"><line style="stroke:#181818;stroke-width:1;" x1="833.4521" x2="875.4521" y1="913.1602" y2="913.1602"/><line style="stroke:#181818;stroke-width:1;" x1="875.4521" x2="875.4521" y1="913.1602" y2="926.1602"/><line style="stroke:#181818;stroke-width:1;" x1="834.4521" x2="875.4521" y1="926.1602" y2="926.1602"/><polygon fill="#181818" points="844.4521,922.1602,834.4521,926.1602,844.4521,930.1602,840.4521,926.1602" style="stroke:#181818;stroke-width:1;"/><text fill="#000000" font-family="sans-serif" font-size="13" lengthAdjust="spacing" textLength="122.916" x="840.4521" y="908.418">formatDescription()</text></g><g class="message" data-participant-1="MDView" data-participant-2="MDView"><line style="stroke:#181818;stroke-width:1;" x1="833.4521" x2="875.4521" y1="955.4707" y2="955.4707"/><line style="stroke:#181818;stroke-width:1;" x1="875.4521" x2="875.4521" y1="955.4707" y2="968.4707"/><line style="stroke:#181818;stroke-width:1;" x1="834.4521" x2="875.4521" y1="968.4707" y2="968.4707"/><polygon fill="#181818" points="844.4521,964.4707,834.4521,968.4707,844.4521,972.4707,840.4521,968.4707" style="stroke:#181818;stroke-width:1;"/><text fill="#000000" font-family="sans-serif" font-size="13" lengthAdjust="spacing" textLength="168.873" x="840.4521" y="950.7285">formatAcceptanceCriteria()</text></g><g class="message" data-participant-1="MDView" data-participant-2="MDView"><line style="stroke:#181818;stroke-width:1;" x1="833.4521" x2="875.4521" y1="997.7813" y2="997.7813"/><line style="stroke:#181818;stroke-width:1;" x1="875.4521" x2="875.4521" y1="997.7813" y2="1010.7813"/><line style="stroke:#181818;stroke-width:1;" x1="834.4521" x2="875.4521" y1="1010.7813" y2="1010.7813"/><polygon fill="#181818" points="844.4521,1006.7813,834.4521,1010.7813,844.4521,1014.7813,840.4521,1010.7813" style="stroke:#181818;stroke-width:1;"/><text fill="#000000" font-family="sans-serif" font-size="13" lengthAdjust="spacing" textLength="136.4683" x="840.4521" y="993.0391">formatTestCoverage()</text></g><g class="message" data-participant-1="MDView" data-participant-2="Generator"><polygon fill="#181818" points="637.4531,1036.0918,627.4531,1040.0918,637.4531,1044.0918,633.4531,1040.0918" style="stroke:#181818;stroke-width:1;"/><line style="stroke:#181818;stroke-width:1;stroke-dasharray:2,2;" x1="631.4531" x2="827.4521" y1="1040.0918" y2="1040.0918"/><text fill="#000000" font-family="sans-serif" font-size="13" lengthAdjust="spacing" textLength="107.3389" x="643.4531" y="1035.3496">markdown string</text></g><g class="message" data-participant-1="Generator" data-participant-2="Output"><polygon fill="#181818" points="1014.3252,1079.4023,1024.3252,1083.4023,1014.3252,1087.4023,1018.3252,1083.4023" style="stroke:#181818;stroke-width:1;"/><line style="stroke:#181818;stroke-width:1;" x1="626.4531" x2="1020.3252" y1="1083.4023" y2="1083.4023"/><text fill="#000000" font-family="sans-serif" font-size="13" lengthAdjust="spacing" textLength="167.4639" x="633.4531" y="1078.6602">write requirements.md file</text></g><path d="M892,1096.4023 L892,1427.4023 L1168,1427.4023 L1168,1106.4023 L1158,1096.4023 L892,1096.4023" fill="#FEFFDD" style="stroke:#181818;stroke-width:0.5;"/><path d="M1158,1096.4023 L1158,1106.4023 L1168,1106.4023 L1158,1096.4023" fill="#FEFFDD" style="stroke:#181818;stroke-width:0.5;"/><text fill="#000000" font-family="sans-serif" font-size="13" font-weight="bold" lengthAdjust="spacing" textLength="255.9375" x="898" y="1113.9707">Generated requirements.md Structure:</text><text fill="#000000" font-family="sans-serif" font-size="13" lengthAdjust="spacing" textLength="4.1133" x="898" y="1129.2813">&#160;</text><text fill="#000000" font-family="sans-serif" font-size="13" lengthAdjust="spacing" textLength="12.3335" x="898" y="1144.5918">1.</text><text fill="#000000" font-family="sans-serif" font-size="13" lengthAdjust="spacing" textLength="128.2734" x="914.4468" y="1144.5918">Sprint Requirements</text><text fill="#000000" font-family="sans-serif" font-size="13" lengthAdjust="spacing" textLength="4.1133" x="898" y="1159.9023">&#160;</text><text fill="#000000" font-family="sans-serif" font-size="13" lengthAdjust="spacing" textLength="12.3335" x="914.4468" y="1175.2129">1.</text><text fill="#000000" font-family="sans-serif" font-size="13" lengthAdjust="spacing" textLength="136.7993" x="930.8936" y="1175.2129">&#128202; Completion Status</text><text fill="#000000" font-family="sans-serif" font-size="13" lengthAdjust="spacing" textLength="148.186" x="898" y="1190.5234">- Total: X requirements</text><text fill="#000000" font-family="sans-serif" font-size="13" lengthAdjust="spacing" textLength="125.6646" x="898" y="1205.834">- Completed: Y (Z%)</text><text fill="#000000" font-family="sans-serif" font-size="13" lengthAdjust="spacing" textLength="4.1133" x="898" y="1221.1445">&#160;</text><text fill="#000000" font-family="sans-serif" font-size="13" lengthAdjust="spacing" textLength="12.3335" x="914.4468" y="1236.4551">2.</text><text fill="#000000" font-family="sans-serif" font-size="13" lengthAdjust="spacing" textLength="108.0825" x="930.8936" y="1236.4551">&#128203; Requirements</text><text fill="#000000" font-family="sans-serif" font-size="13" lengthAdjust="spacing" textLength="4.1133" x="898" y="1251.7656">&#160;</text><text fill="#000000" font-family="sans-serif" font-size="13" lengthAdjust="spacing" textLength="12.3335" x="930.8936" y="1267.0762">1.</text><text fill="#000000" font-family="sans-serif" font-size="13" lengthAdjust="spacing" textLength="65.9204" x="947.3403" y="1267.0762">Epic Name</text><text fill="#000000" font-family="sans-serif" font-size="13" lengthAdjust="spacing" textLength="144.4727" x="898" y="1282.3867">- [x] Requirement Title</text><text fill="#000000" font-family="sans-serif" font-size="13" lengthAdjust="spacing" textLength="134.5386" x="906.2266" y="1297.6973">[requirement:uuid:...]</text><text fill="#000000" font-family="sans-serif" font-size="13" lengthAdjust="spacing" textLength="86.6455" x="906.2266" y="1313.0078">&gt; Description</text><text fill="#000000" font-family="sans-serif" font-size="13" lengthAdjust="spacing" textLength="8.2266" x="898" y="1328.3184">&#160;&#160;</text><text fill="#000000" font-family="sans-serif" font-size="13" lengthAdjust="spacing" textLength="8.2266" x="898" y="1343.6289">&#160;&#160;</text><text fill="#000000" font-family="sans-serif" font-size="13" font-weight="bold" lengthAdjust="spacing" textLength="133.1865" x="906.2266" y="1343.6289">Acceptance Criteria:</text><text fill="#000000" font-family="sans-serif" font-size="13" lengthAdjust="spacing" textLength="87.0835" x="906.2266" y="1358.9395">- [ ] Criteria 1</text><text fill="#000000" font-family="sans-serif" font-size="13" lengthAdjust="spacing" textLength="90.9429" x="906.2266" y="1374.25">- [x] Criteria 2</text><text fill="#000000" font-family="sans-serif" font-size="13" lengthAdjust="spacing" textLength="8.2266" x="898" y="1389.5605">&#160;&#160;</text><text fill="#000000" font-family="sans-serif" font-size="13" lengthAdjust="spacing" textLength="8.2266" x="898" y="1404.8711">&#160;&#160;</text><text fill="#000000" font-family="sans-serif" font-size="13" font-weight="bold" lengthAdjust="spacing" textLength="99.3408" x="906.2266" y="1404.8711">Test Coverage:</text><text fill="#000000" font-family="sans-serif" font-size="13" lengthAdjust="spacing" textLength="123.9634" x="906.2266" y="1420.1816">- [test:uuid:...](link)</text><g class="message" data-participant-1="Generator" data-participant-2="PO"><polygon fill="#181818" points="238.1416,1450.2344,228.1416,1454.2344,238.1416,1458.2344,234.1416,1454.2344" style="stroke:#181818;stroke-width:1;"/><line style="stroke:#181818;stroke-width:1;stroke-dasharray:2,2;" x1="232.1416" x2="620.4531" y1="1454.2344" y2="1454.2344"/><text fill="#000000" font-family="sans-serif" font-size="13" lengthAdjust="spacing" textLength="170.6821" x="244.1416" y="1449.4922">complete requirements.md</text></g><g class="message" data-participant-1="PO" data-participant-2="Output"><polygon fill="#181818" points="1019.3252,1520.8213,1029.3252,1524.8213,1019.3252,1528.8213,1023.3252,1524.8213" style="stroke:#181818;stroke-width:1;"/><line style="stroke:#181818;stroke-width:1;" x1="227.1416" x2="1025.3252" y1="1524.8213" y2="1524.8213"/><text fill="#000000" font-family="sans-serif" font-size="13" lengthAdjust="spacing" textLength="167.0005" x="234.1416" y="1520.0791">review generated overview</text></g><path d="M5,1467.2344 L5,1568.2344 L222,1568.2344 L222,1477.2344 L212,1467.2344 L5,1467.2344" fill="#FEFFDD" style="stroke:#181818;stroke-width:0.5;"/><path d="M212,1467.2344 L212,1477.2344 L222,1477.2344 L212,1467.2344" fill="#FEFFDD" style="stroke:#181818;stroke-width:0.5;"/><text fill="#000000" font-family="sans-serif" font-size="13" font-weight="bold" lengthAdjust="spacing" textLength="161.4844" x="11" y="1484.8027">Product Owner Benefits:</text><text fill="#000000" font-family="sans-serif" font-size="13" lengthAdjust="spacing" textLength="196.2124" x="11" y="1500.1133">&#8226; Auto-generated from objects</text><text fill="#000000" font-family="sans-serif" font-size="13" lengthAdjust="spacing" textLength="171.3232" x="11" y="1515.4238">&#8226; Real-time status tracking</text><text fill="#000000" font-family="sans-serif" font-size="13" lengthAdjust="spacing" textLength="173.1768" x="11" y="1530.7344">&#8226; Complete test traceability</text><text fill="#000000" font-family="sans-serif" font-size="13" lengthAdjust="spacing" textLength="120.8784" x="11" y="1546.0449">&#8226; Epic organization</text><text fill="#000000" font-family="sans-serif" font-size="13" lengthAdjust="spacing" textLength="156.8125" x="11" y="1561.3555">&#8226; Checkbox functionality</text><path d="M331,1579.0977 L331,1665.0977 L710,1665.0977 L710,1589.0977 L700,1579.0977 L331,1579.0977" fill="#FEFFDD" style="stroke:#181818;stroke-width:0.5;"/><path d="M700,1579.0977 L700,1589.0977 L710,1589.0977 L700,1579.0977" fill="#FEFFDD" style="stroke:#181818;stroke-width:0.5;"/><text fill="#000000" font-family="sans-serif" font-size="13" font-weight="bold" lengthAdjust="spacing" textLength="148.3193" x="395.5593" y="1596.666">Web4 Object Network:</text><text fill="#000000" font-family="sans-serif" font-size="13" lengthAdjust="spacing" textLength="224.5293" x="395.5593" y="1611.9766">Each requirement = object instance</text><text fill="#000000" font-family="sans-serif" font-size="13" lengthAdjust="spacing" textLength="241.23" x="395.5593" y="1627.2871">Overview = MDView of object network</text><text fill="#000000" font-family="sans-serif" font-size="13" lengthAdjust="spacing" textLength="219.7686" x="395.5593" y="1642.5977">Status changes = object mutations</text><text fill="#000000" font-family="sans-serif" font-size="13" lengthAdjust="spacing" textLength="183.3901" x="395.5593" y="1657.9082">Traceability = IOR references</text><!--SRC=[XLPHRzis47xNhxWs660RSx2r7L0ORO3Kbei0JUmvThkj2mPQEZjSP54ZgJZPqvwtn_s00Vjf-mNx2JkIeaGfS_BILBplZiVllhlpinGtF4TOnD-kpXRnUNon_6ay-p1Rm57ySlfYEecULOZtyKMyE5tE5hNzzVIR-7Lj_tWMV_AcwJX-5OzhqsordA_gkDFfz6NyLHHfhZE4JxX-1GlyfUGITvXhcDsYlEMuX_UOesIQYnpcKYIeL1GLJ6gUy88Hy3cTfcL27di2FWUcO3vh8qpm8BR5q3UyUVFWlISdRTV0pMTK9IJSNVKNHUjmyqYiyyb7YcG3kF-ITyDSrr4sZkfubrgtMQcBKfDRo2evHlCP34_iyqQGI6GQ8V07iVuP4wqYbcX-Quo4ZA9CY08sz0XaoNM8Zy26gYFodEjUOBzCC6UIYpu1Ss7kujjhFNBrd3EjKUQZ7_D_VliRubsXxo4HkTAIwYMaE_OHR6ZEClwhBROpdiqMmpLJc8AMB46svXdNztHNDo-MfajKUe4Rb9WdsDFqHTxzBh0iKdhrfMQwL3rb__GZp5DFN5FFcZxXfRZrjeQz6Xv5ZMSdZENC1sa8QqXdMHPohYZdXydG2mC1XJKmRsnTxbwwHNsEcj5pMUymP1dmQc6UiCxreOPCo4ESLHoXxvRp2KKzp0rbu9642nKqPbbIPXIfaizOx8eCxHmmPUEA-aCvqvpub9G_hAbWDwdOL-g92vx0LegouFdsiIGC921NlRithhr-jp6GJecVWzr2fVQO0tmxSbpFMxe1QYsvKtjc_wbqMms8MexLjyH2eg9BRRiqNfKvTAHKTqoFhp6vMOkxIllznz6hrTdaASm4LI9vOUv_2dgQ95XeHfqvfagXvEmf3zFEOzCrR8iLjkNGgU6EILjv4eSqrJRG51zoQsHhfTigJpLDHx0tsK5duCA6PzZql0D7JgqcGty2C1XKOMbYTODSsh5NIXmD1gxFZk2oe6HrkFXKPJg2V__wy_TGzQvkP1l2KcYMZU2xxjGOUZoc8_WUUZzyqG_3_V6_5nsvFhbWExGXFjzTjJRnqYneo-VduBfHMV9qT7nyV6LD9n28eIdMOD0K7dpbtVljLN1LdyBN_l0kE7mHnZAI0A-988gPzKq-lOpdDtQcsutKgZILcaOMjL95KxT8KI2PPhG7XxxsRl3Lif4OBWWglX_tJYGPRcYY3GQjdohmZj0RhXMznCshqrABOHDZ8yNExsi7M23BXfhl4DpciblnXkJU6f48Xf3MnWpceP1RbhUMh1yCi2dpn1mpksG3VPCSlWpuCBMm2tvcauCBr7iXRrn5ukvCV5kzWOQZia8WKFthxgtlPx7niDn58vHJF2JNBD-YQWBjIZVqZ8J3_KK8MlbqUVKZG3KY-0y0]--></g></svg>