<svg xmlns="http://www.w3.org/2000/svg" xmlns:xlink="http://www.w3.org/1999/xlink" contentStyleType="text/css" data-diagram-type="CLASS" height="463px" preserveAspectRatio="none" style="width:1165px;height:463px;background:#FFFFFF;" version="1.1" viewBox="0 0 1165 463" width="1165px" zoomAndPan="magnify"><title>GitScrumProject Templating, Submodule, Release Architecture</title><defs/><g><g class="title" data-source-line="2"><text fill="#000000" font-family="sans-serif" font-size="14" font-weight="bold" lengthAdjust="spacing" textLength="446.4756" x="352.332" y="23.5352">GitScrumProject Templating, Submodule, Release Architecture</text></g><!--class CLI--><g class="entity" data-entity="CLI" data-source-line="4" data-uid="ent0002" id="entity_CLI"><rect fill="#F1F1F1" height="64.4883" rx="2.5" ry="2.5" style="stroke:#181818;stroke-width:0.5;" width="63.3037" x="7" y="392.3883"/><ellipse cx="26.5536" cy="408.3883" fill="#B4A7E5" rx="11" ry="11" style="stroke:#181818;stroke-width:1;"/><path d="M22.9813,404.6534 L22.9813,402.4952 L30.3607,402.4952 L30.3607,404.6534 L27.8954,404.6534 L27.8954,412.7301 L30.3607,412.7301 L30.3607,414.8883 L22.9813,414.8883 L22.9813,412.7301 L25.4467,412.7301 L25.4467,404.6534 Z " fill="#000000"/><text fill="#000000" font-family="sans-serif" font-size="14" font-style="italic" lengthAdjust="spacing" textLength="21.1846" x="41.5655" y="413.6793">CLI</text><line style="stroke:#181818;stroke-width:0.5;" x1="8" x2="69.3037" y1="424.3883" y2="424.3883"/><line style="stroke:#181818;stroke-width:0.5;" x1="8" x2="69.3037" y1="432.3883" y2="432.3883"/><text fill="#000000" font-family="sans-serif" font-size="14" lengthAdjust="spacing" textLength="51.3037" x="13" y="449.9234">+start()</text></g><!--class DefaultCLI--><g class="entity" data-entity="DefaultCLI" data-source-line="7" data-uid="ent0003" id="entity_DefaultCLI"><rect fill="#F1F1F1" height="64.4883" rx="2.5" ry="2.5" style="stroke:#181818;stroke-width:0.5;" width="102.3213" x="56.49" y="259.6583"/><ellipse cx="71.49" cy="275.6583" fill="#ADD1B2" rx="11" ry="11" style="stroke:#181818;stroke-width:1;"/><path d="M73.9631,281.8013 Q73.3821,282.1002 72.7429,282.2496 Q72.1038,282.399 71.3982,282.399 Q68.8914,282.399 67.5715,280.7471 Q66.2517,279.0953 66.2517,275.9742 Q66.2517,272.8448 67.5715,271.1929 Q68.8914,269.5411 71.3982,269.5411 Q72.1038,269.5411 72.7512,269.6905 Q73.3987,269.8399 73.9631,270.1387 L73.9631,272.8614 Q73.3323,272.2804 72.7388,272.0106 Q72.1453,271.7408 71.5144,271.7408 Q70.1697,271.7408 69.4849,272.8075 Q68.8001,273.8741 68.8001,275.9742 Q68.8001,278.066 69.4849,279.1326 Q70.1697,280.1993 71.5144,280.1993 Q72.1453,280.1993 72.7388,279.9295 Q73.3323,279.6597 73.9631,279.0787 Z " fill="#000000"/><text fill="#000000" font-family="sans-serif" font-size="14" lengthAdjust="spacing" textLength="70.3213" x="85.49" y="280.9493">DefaultCLI</text><line style="stroke:#181818;stroke-width:0.5;" x1="57.49" x2="157.8113" y1="291.6583" y2="291.6583"/><line style="stroke:#181818;stroke-width:0.5;" x1="57.49" x2="157.8113" y1="299.6583" y2="299.6583"/><text fill="#000000" font-family="sans-serif" font-size="14" lengthAdjust="spacing" textLength="51.3037" x="62.49" y="317.1934">+start()</text></g><!--class ParameterParser--><g class="entity" data-entity="ParameterParser" data-source-line="10" data-uid="ent0004" id="entity_ParameterParser"><rect fill="#F1F1F1" height="64.4883" rx="2.5" ry="2.5" style="stroke:#181818;stroke-width:0.5;" width="145.6904" x="104.81" y="392.3883"/><ellipse cx="121.2782" cy="408.3883" fill="#ADD1B2" rx="11" ry="11" style="stroke:#181818;stroke-width:1;"/><path d="M123.7514,414.5313 Q123.1703,414.8302 122.5311,414.9796 Q121.892,415.129 121.1864,415.129 Q118.6796,415.129 117.3598,413.4771 Q116.0399,411.8253 116.0399,408.7042 Q116.0399,405.5748 117.3598,403.9229 Q118.6796,402.2711 121.1864,402.2711 Q121.892,402.2711 122.5394,402.4205 Q123.1869,402.5699 123.7514,402.8688 L123.7514,405.5914 Q123.1205,405.0104 122.527,404.7406 Q121.9335,404.4708 121.3026,404.4708 Q119.9579,404.4708 119.2731,405.5375 Q118.5883,406.6041 118.5883,408.7042 Q118.5883,410.796 119.2731,411.8626 Q119.9579,412.9293 121.3026,412.9293 Q121.9335,412.9293 122.527,412.6595 Q123.1205,412.3897 123.7514,411.8087 Z " fill="#000000"/><text fill="#000000" font-family="sans-serif" font-size="14" lengthAdjust="spacing" textLength="110.4277" x="135.6045" y="413.6793">ParameterParser</text><line style="stroke:#181818;stroke-width:0.5;" x1="105.81" x2="249.5004" y1="424.3883" y2="424.3883"/><line style="stroke:#181818;stroke-width:0.5;" x1="105.81" x2="249.5004" y1="432.3883" y2="432.3883"/><text fill="#000000" font-family="sans-serif" font-size="14" lengthAdjust="spacing" textLength="133.6904" x="110.81" y="449.9234">+parse(): ParseArgs</text></g><!--class ParseArgs--><g class="entity" data-entity="ParseArgs" data-source-line="13" data-uid="ent0005" id="entity_ParseArgs"><rect fill="#F1F1F1" height="97.4648" rx="2.5" ry="2.5" style="stroke:#181818;stroke-width:0.5;" width="99.3887" x="831.96" y="69.2183"/><ellipse cx="846.96" cy="85.2183" fill="#ADD1B2" rx="11" ry="11" style="stroke:#181818;stroke-width:1;"/><path d="M849.4331,91.3613 Q848.8521,91.6602 848.2129,91.8096 Q847.5738,91.959 846.8682,91.959 Q844.3614,91.959 843.0415,90.3071 Q841.7217,88.6553 841.7217,85.5342 Q841.7217,82.4048 843.0415,80.7529 Q844.3614,79.1011 846.8682,79.1011 Q847.5738,79.1011 848.2212,79.2505 Q848.8687,79.3999 849.4331,79.6987 L849.4331,82.4214 Q848.8023,81.8404 848.2088,81.5706 Q847.6153,81.3008 846.9844,81.3008 Q845.6397,81.3008 844.9549,82.3675 Q844.2701,83.4341 844.2701,85.5342 Q844.2701,87.626 844.9549,88.6926 Q845.6397,89.7593 846.9844,89.7593 Q847.6153,89.7593 848.2088,89.4895 Q848.8023,89.2197 849.4331,88.6387 Z " fill="#000000"/><text fill="#000000" font-family="sans-serif" font-size="14" lengthAdjust="spacing" textLength="67.3887" x="860.96" y="90.5093">ParseArgs</text><line style="stroke:#181818;stroke-width:0.5;" x1="832.96" x2="930.3487" y1="101.2183" y2="101.2183"/><text fill="#000000" font-family="sans-serif" font-size="14" lengthAdjust="spacing" textLength="83.2959" x="837.96" y="118.7534">+className</text><text fill="#000000" font-family="sans-serif" font-size="14" lengthAdjust="spacing" textLength="78.2715" x="837.96" y="135.2417">+command</text><text fill="#000000" font-family="sans-serif" font-size="14" lengthAdjust="spacing" textLength="40.4551" x="837.96" y="151.73">+args</text><line style="stroke:#181818;stroke-width:0.5;" x1="832.96" x2="930.3487" y1="158.6831" y2="158.6831"/></g><!--class GitScrumProject--><g class="entity" data-entity="GitScrumProject" data-source-line="19" data-uid="ent0006" id="entity_GitScrumProject"><rect fill="#F1F1F1" height="146.9297" rx="2.5" ry="2.5" style="stroke:#181818;stroke-width:0.5;" width="485.7988" x="310.75" y="44.4883"/><ellipse cx="495.334" cy="60.4883" fill="#ADD1B2" rx="11" ry="11" style="stroke:#181818;stroke-width:1;"/><path d="M497.8071,66.6313 Q497.2261,66.9302 496.5869,67.0796 Q495.9478,67.229 495.2422,67.229 Q492.7354,67.229 491.4155,65.5771 Q490.0957,63.9253 490.0957,60.8042 Q490.0957,57.6748 491.4155,56.0229 Q492.7354,54.3711 495.2422,54.3711 Q495.9478,54.3711 496.5952,54.5205 Q497.2427,54.6699 497.8071,54.9688 L497.8071,57.6914 Q497.1763,57.1104 496.5828,56.8406 Q495.9893,56.5708 495.3584,56.5708 Q494.0137,56.5708 493.3289,57.6375 Q492.644,58.7041 492.644,60.8042 Q492.644,62.896 493.3289,63.9626 Q494.0137,65.0293 495.3584,65.0293 Q495.9893,65.0293 496.5828,64.7595 Q497.1763,64.4897 497.8071,63.9087 Z " fill="#000000"/><text fill="#000000" font-family="sans-serif" font-size="14" lengthAdjust="spacing" textLength="108.1309" x="515.834" y="65.7793">GitScrumProject</text><line style="stroke:#181818;stroke-width:0.5;" x1="311.75" x2="795.5488" y1="76.4883" y2="76.4883"/><line style="stroke:#181818;stroke-width:0.5;" x1="311.75" x2="795.5488" y1="84.4883" y2="84.4883"/><text fill="#000000" font-family="sans-serif" font-size="14" lengthAdjust="spacing" textLength="92.292" x="316.75" y="102.0234">+static start()</text><text fill="#000000" font-family="sans-serif" font-size="14" lengthAdjust="spacing" textLength="148.5586" x="316.75" y="118.5117">+create(args: string[])</text><text fill="#000000" font-family="sans-serif" font-size="14" lengthAdjust="spacing" textLength="473.7988" x="316.75" y="135">+createTemplateRepo(org, newRepo, sourceRepoUrl, submodulePath)</text><text fill="#000000" font-family="sans-serif" font-size="14" lengthAdjust="spacing" textLength="330.832" x="316.75" y="151.4883">+linkSource(submodulePath, sourceRepoUrl, ref)</text><text fill="#000000" font-family="sans-serif" font-size="14" lengthAdjust="spacing" textLength="264.6875" x="316.75" y="167.9766">+overlayRun(entryClass, method, args)</text><text fill="#000000" font-family="sans-serif" font-size="14" lengthAdjust="spacing" textLength="160.2002" x="316.75" y="184.4648">+releasePlan(repoType)</text></g><!--class GitHubApi--><g class="entity" data-entity="GitHubApi" data-source-line="28" data-uid="ent0007" id="entity_GitHubApi"><rect fill="#F1F1F1" height="64.4883" rx="2.5" ry="2.5" style="stroke:#181818;stroke-width:0.5;" width="241.8105" x="193.75" y="259.6583"/><ellipse cx="275.5522" cy="275.6583" fill="#ADD1B2" rx="11" ry="11" style="stroke:#181818;stroke-width:1;"/><path d="M278.0254,281.8013 Q277.4443,282.1002 276.8052,282.2496 Q276.166,282.399 275.4604,282.399 Q272.9536,282.399 271.6338,280.7471 Q270.314,279.0953 270.314,275.9742 Q270.314,272.8448 271.6338,271.1929 Q272.9536,269.5411 275.4604,269.5411 Q276.166,269.5411 276.8135,269.6905 Q277.4609,269.8399 278.0254,270.1387 L278.0254,272.8614 Q277.3945,272.2804 276.801,272.0106 Q276.2075,271.7408 275.5767,271.7408 Q274.2319,271.7408 273.5471,272.8075 Q272.8623,273.8741 272.8623,275.9742 Q272.8623,278.066 273.5471,279.1326 Q274.2319,280.1993 275.5767,280.1993 Q276.2075,280.1993 276.801,279.9295 Q277.3945,279.6597 278.0254,279.0787 Z " fill="#000000"/><text fill="#000000" font-family="sans-serif" font-size="14" lengthAdjust="spacing" textLength="69.7061" x="296.0522" y="280.9493">GitHubApi</text><line style="stroke:#181818;stroke-width:0.5;" x1="194.75" x2="434.5605" y1="291.6583" y2="291.6583"/><line style="stroke:#181818;stroke-width:0.5;" x1="194.75" x2="434.5605" y1="299.6583" y2="299.6583"/><text fill="#000000" font-family="sans-serif" font-size="14" lengthAdjust="spacing" textLength="229.8105" x="199.75" y="317.1934">+createRepo(org, name, visibility)</text></g><!--class SubmoduleManager--><g class="entity" data-entity="SubmoduleManager" data-source-line="31" data-uid="ent0008" id="entity_SubmoduleManager"><rect fill="#F1F1F1" height="80.9766" rx="2.5" ry="2.5" style="stroke:#181818;stroke-width:0.5;" width="166.5244" x="470.39" y="251.4183"/><ellipse cx="485.39" cy="267.4183" fill="#ADD1B2" rx="11" ry="11" style="stroke:#181818;stroke-width:1;"/><path d="M487.8631,273.5613 Q487.2821,273.8602 486.6429,274.0096 Q486.0038,274.159 485.2982,274.159 Q482.7914,274.159 481.4715,272.5071 Q480.1517,270.8553 480.1517,267.7342 Q480.1517,264.6048 481.4715,262.9529 Q482.7914,261.3011 485.2982,261.3011 Q486.0038,261.3011 486.6512,261.4505 Q487.2987,261.5999 487.8631,261.8987 L487.8631,264.6214 Q487.2323,264.0404 486.6388,263.7706 Q486.0453,263.5008 485.4144,263.5008 Q484.0697,263.5008 483.3849,264.5675 Q482.7001,265.6341 482.7001,267.7342 Q482.7001,269.826 483.3849,270.8926 Q484.0697,271.9593 485.4144,271.9593 Q486.0453,271.9593 486.6388,271.6895 Q487.2323,271.4197 487.8631,270.8387 Z " fill="#000000"/><text fill="#000000" font-family="sans-serif" font-size="14" lengthAdjust="spacing" textLength="134.5244" x="499.39" y="272.7093">SubmoduleManager</text><line style="stroke:#181818;stroke-width:0.5;" x1="471.39" x2="635.9144" y1="283.4183" y2="283.4183"/><line style="stroke:#181818;stroke-width:0.5;" x1="471.39" x2="635.9144" y1="291.4183" y2="291.4183"/><text fill="#000000" font-family="sans-serif" font-size="14" lengthAdjust="spacing" textLength="130.915" x="476.39" y="308.9534">+add(path, url, ref)</text><text fill="#000000" font-family="sans-serif" font-size="14" lengthAdjust="spacing" textLength="125.3164" x="476.39" y="325.4417">+update(path, ref)</text></g><!--class ReleaseManager--><g class="entity" data-entity="ReleaseManager" data-source-line="35" data-uid="ent0009" id="entity_ReleaseManager"><rect fill="#F1F1F1" height="80.9766" rx="2.5" ry="2.5" style="stroke:#181818;stroke-width:0.5;" width="300.4014" x="671.45" y="251.4183"/><ellipse cx="762.5833" cy="267.4183" fill="#ADD1B2" rx="11" ry="11" style="stroke:#181818;stroke-width:1;"/><path d="M765.0564,273.5613 Q764.4754,273.8602 763.8362,274.0096 Q763.1971,274.159 762.4915,274.159 Q759.9847,274.159 758.6648,272.5071 Q757.345,270.8553 757.345,267.7342 Q757.345,264.6048 758.6648,262.9529 Q759.9847,261.3011 762.4915,261.3011 Q763.1971,261.3011 763.8445,261.4505 Q764.492,261.5999 765.0564,261.8987 L765.0564,264.6214 Q764.4256,264.0404 763.8321,263.7706 Q763.2386,263.5008 762.6077,263.5008 Q761.263,263.5008 760.5782,264.5675 Q759.8934,265.6341 759.8934,267.7342 Q759.8934,269.826 760.5782,270.8926 Q761.263,271.9593 762.6077,271.9593 Q763.2386,271.9593 763.8321,271.6895 Q764.4256,271.4197 765.0564,270.8387 Z " fill="#000000"/><text fill="#000000" font-family="sans-serif" font-size="14" lengthAdjust="spacing" textLength="109.6348" x="783.0833" y="272.7093">ReleaseManager</text><line style="stroke:#181818;stroke-width:0.5;" x1="672.45" x2="970.8514" y1="283.4183" y2="283.4183"/><line style="stroke:#181818;stroke-width:0.5;" x1="672.45" x2="970.8514" y1="291.4183" y2="291.4183"/><text fill="#000000" font-family="sans-serif" font-size="14" lengthAdjust="spacing" textLength="113.2305" x="677.45" y="308.9534">+plan(repoType)</text><text fill="#000000" font-family="sans-serif" font-size="14" lengthAdjust="spacing" textLength="288.4014" x="677.45" y="325.4417">+tagAndRelease(repoType, version, notes)</text></g><!--class RecoveryManager--><g class="entity" data-entity="RecoveryManager" data-source-line="39" data-uid="ent0010" id="entity_RecoveryManager"><rect fill="#F1F1F1" height="64.4883" rx="2.5" ry="2.5" style="stroke:#181818;stroke-width:0.5;" width="150.9795" x="1007.16" y="259.6583"/><ellipse cx="1022.16" cy="275.6583" fill="#ADD1B2" rx="11" ry="11" style="stroke:#181818;stroke-width:1;"/><path d="M1024.6331,281.8013 Q1024.0521,282.1002 1023.4129,282.2496 Q1022.7738,282.399 1022.0682,282.399 Q1019.5614,282.399 1018.2415,280.7471 Q1016.9217,279.0953 1016.9217,275.9742 Q1016.9217,272.8448 1018.2415,271.1929 Q1019.5614,269.5411 1022.0682,269.5411 Q1022.7738,269.5411 1023.4212,269.6905 Q1024.0687,269.8399 1024.6331,270.1387 L1024.6331,272.8614 Q1024.0023,272.2804 1023.4088,272.0106 Q1022.8153,271.7408 1022.1844,271.7408 Q1020.8397,271.7408 1020.1549,272.8075 Q1019.4701,273.8741 1019.4701,275.9742 Q1019.4701,278.066 1020.1549,279.1326 Q1020.8397,280.1993 1022.1844,280.1993 Q1022.8153,280.1993 1023.4088,279.9295 Q1024.0023,279.6597 1024.6331,279.0787 Z " fill="#000000"/><text fill="#000000" font-family="sans-serif" font-size="14" lengthAdjust="spacing" textLength="118.9795" x="1036.16" y="280.9493">RecoveryManager</text><line style="stroke:#181818;stroke-width:0.5;" x1="1008.16" x2="1157.1395" y1="291.6583" y2="291.6583"/><line style="stroke:#181818;stroke-width:0.5;" x1="1008.16" x2="1157.1395" y1="299.6583" y2="299.6583"/><text fill="#000000" font-family="sans-serif" font-size="14" lengthAdjust="spacing" textLength="95.5322" x="1013.16" y="317.1934">+summarize()</text></g><!--reverse link GitScrumProject to DefaultCLI--><g class="link" data-entity-1="GitScrumProject" data-entity-2="DefaultCLI" data-source-line="43" data-uid="lnk11" id="link_GitScrumProject_DefaultCLI"><path codeLine="43" d="M313.4408,195.947 C263.9408,213.787 223.66,229.9183 176.65,251.4183 C170.88,254.0583 164.95,257.0183 159.11,260.1083" fill="none" id="GitScrumProject-backto-DefaultCLI" style="stroke:#181818;stroke-width:1;"/><polygon fill="none" points="324.73,191.8783,317.7292,190.1496,313.4408,195.947,320.4416,197.6757,324.73,191.8783" style="stroke:#181818;stroke-width:1;"/></g><!--reverse link DefaultCLI to ParameterParser--><g class="link" data-entity-1="DefaultCLI" data-entity-2="ParameterParser" data-source-line="44" data-uid="lnk12" id="link_DefaultCLI_ParameterParser"><path codeLine="44" d="M130.2631,335.128 C141.2631,355.678 149.89,371.7783 160.86,392.2783" fill="none" id="DefaultCLI-backto-ParameterParser" style="stroke:#181818;stroke-width:1;"/><polygon fill="none" points="124.6,324.5483,123.905,331.7258,130.2631,335.128,130.9581,327.9504,124.6,324.5483" style="stroke:#181818;stroke-width:1;"/></g><!--link DefaultCLI to CLI--><g class="link" data-entity-1="DefaultCLI" data-entity-2="CLI" data-source-line="45" data-uid="lnk13" id="link_DefaultCLI_CLI"><path codeLine="45" d="M90.95,324.5483 C80.1,345.0983 74.422,355.8595 63.602,376.3595" fill="none" id="DefaultCLI-to-CLI" style="stroke:#181818;stroke-width:1;stroke-dasharray:7,7;"/><polygon fill="none" points="55.2,392.2783,68.9082,379.1602,58.2957,373.5589,55.2,392.2783" style="stroke:#181818;stroke-width:1;"/></g><!--reverse link GitScrumProject to GitHubApi--><g class="link" data-entity-1="GitScrumProject" data-entity-2="GitHubApi" data-source-line="46" data-uid="lnk14" id="link_GitScrumProject_GitHubApi"><path codeLine="46" d="M442.5506,198.8786 C409.8606,222.4086 385.05,240.2583 358.74,259.1783" fill="none" id="GitScrumProject-backto-GitHubApi" style="stroke:#181818;stroke-width:1;"/><polygon fill="none" points="452.29,191.8683,445.0835,192.127,442.5506,198.8786,449.7571,198.6199,452.29,191.8683" style="stroke:#181818;stroke-width:1;"/></g><!--reverse link GitScrumProject to SubmoduleManager--><g class="link" data-entity-1="GitScrumProject" data-entity-2="SubmoduleManager" data-source-line="47" data-uid="lnk15" id="link_GitScrumProject_SubmoduleManager"><path codeLine="47" d="M553.65,203.8683 C553.65,224.1883 553.65,233.5083 553.65,251.1383" fill="none" id="GitScrumProject-backto-SubmoduleManager" style="stroke:#181818;stroke-width:1;"/><polygon fill="none" points="553.65,191.8683,549.65,197.8683,553.65,203.8683,557.65,197.8683,553.65,191.8683" style="stroke:#181818;stroke-width:1;"/></g><!--reverse link GitScrumProject to ReleaseManager--><g class="link" data-entity-1="GitScrumProject" data-entity-2="ReleaseManager" data-source-line="48" data-uid="lnk16" id="link_GitScrumProject_ReleaseManager"><path codeLine="48" d="M677.4098,198.3485 C709.0798,218.6685 732.2,233.5083 759.68,251.1383" fill="none" id="GitScrumProject-backto-ReleaseManager" style="stroke:#181818;stroke-width:1;"/><polygon fill="none" points="667.31,191.8683,670.1998,198.475,677.4098,198.3485,674.52,191.7418,667.31,191.8683" style="stroke:#181818;stroke-width:1;"/></g><!--reverse link GitScrumProject to RecoveryManager--><g class="link" data-entity-1="GitScrumProject" data-entity-2="RecoveryManager" data-source-line="49" data-uid="lnk17" id="link_GitScrumProject_RecoveryManager"><path codeLine="49" d="M808.5089,191.3863 C871.6789,210.6363 927.84,228.9683 989.65,251.4183 C996.33,253.8383 1003.22,256.4783 1010.09,259.2183" fill="none" id="GitScrumProject-backto-RecoveryManager" style="stroke:#181818;stroke-width:1;"/><polygon fill="none" points="797.03,187.8883,801.6034,193.4636,808.5089,191.3863,803.9354,185.811,797.03,187.8883" style="stroke:#181818;stroke-width:1;"/></g><!--SRC=[TLB1Rjim3BthAtXqCBVekOS1HWTi1ROYIBhJi8CYCubMMH8egeMxxTydoNPcf-dDudjyVdnaUDBMIv8TA2D3Q9X9xoBZlN9sgryHRWHhDWYVDMyLnMvDxXSgXaVil96ixQ66RTnrheq6QzYWGHaG6b97pOaO2ONGbf7sKY7SVRs7tmBWGs19NAt4Nr5-39zmBwFXT_5rDeb99dq4f87aytUrkeLIREWGvloXCZ1ByI4fb8VhEcdR_2c7dh7fVCZ92Mi5aw7SJoWPgznxc-gKGlZnSuQCsU06lQiSfOGilkH73S55KWNuJYOzf-JMaez5mMZxj2saQW6-QINSbmRtZ6HalucsGilKt-L9QaXP7LrRGpPPU3HiPcsahIY9FFOULulHlyHTu_MOLnbaDa2AhePd7VHE6ytz_yMSblzDMdcODYFRjlB5TfoRZRxDoGr8AKuou-4iHFpIQwgmF3Is7RadA1b32jhPvDCnXhcgoldq2zaGq_ef7NSvBt6-T7TrDRj6CJlCZ9pTuHo-llxpCH_uHSLJlXVHyn0lafOHlKDPp2l-0G00]--></g></svg>